<mxfile host="app.diagrams.net" agent="Mozilla/5.0 (Windows NT 10.0; Win64; x64) AppleWebKit/537.36 (KHTML, like Gecko) Chrome/128.0.0.0 Safari/537.36 OPR/114.0.0.0" version="24.8.8" pages="5">
  <diagram name="RNN" id="ICVZUKcrpce5JuRrkS_D">
    <mxGraphModel grid="1" page="1" gridSize="10" guides="1" tooltips="1" connect="1" arrows="1" fold="1" pageScale="1" pageWidth="827" pageHeight="1169" math="0" shadow="0">
      <root>
        <mxCell id="0" />
        <mxCell id="1" parent="0" />
        <mxCell id="44svDI2mm8FKR9LoV48q-10" value="" style="edgeStyle=orthogonalEdgeStyle;rounded=0;orthogonalLoop=1;jettySize=auto;html=1;fontFamily=Computer Modern;fontSource=https%3A%2F%2Fgithub.com%2Fspratt%2FComputer-Modern%2Fblob%2F478ef3d4716bea134f9fc5c14f9c976fda120ee5%2Fcmunbl-webfont.woff;fontSize=20;" edge="1" parent="1" source="44svDI2mm8FKR9LoV48q-3" target="44svDI2mm8FKR9LoV48q-4">
          <mxGeometry relative="1" as="geometry" />
        </mxCell>
        <mxCell id="44svDI2mm8FKR9LoV48q-3" value="RNN" style="rounded=1;whiteSpace=wrap;html=1;fontFamily=Computer Modern;fontSource=https%3A%2F%2Fgithub.com%2Fspratt%2FComputer-Modern%2Fblob%2F478ef3d4716bea134f9fc5c14f9c976fda120ee5%2Fcmunbl-webfont.woff;fontSize=20;fillColor=#f8cecc;strokeColor=#b85450;" vertex="1" parent="1">
          <mxGeometry x="320" y="260" width="120" height="60" as="geometry" />
        </mxCell>
        <mxCell id="44svDI2mm8FKR9LoV48q-11" value="" style="edgeStyle=orthogonalEdgeStyle;rounded=0;orthogonalLoop=1;jettySize=auto;html=1;fontFamily=Computer Modern;fontSource=https%3A%2F%2Fgithub.com%2Fspratt%2FComputer-Modern%2Fblob%2F478ef3d4716bea134f9fc5c14f9c976fda120ee5%2Fcmunbl-webfont.woff;fontSize=20;" edge="1" parent="1" source="44svDI2mm8FKR9LoV48q-4" target="44svDI2mm8FKR9LoV48q-5">
          <mxGeometry relative="1" as="geometry" />
        </mxCell>
        <mxCell id="44svDI2mm8FKR9LoV48q-4" value="Dense" style="rounded=1;whiteSpace=wrap;html=1;fontFamily=Computer Modern;fontSource=https%3A%2F%2Fgithub.com%2Fspratt%2FComputer-Modern%2Fblob%2F478ef3d4716bea134f9fc5c14f9c976fda120ee5%2Fcmunbl-webfont.woff;fontSize=20;fillColor=#dae8fc;strokeColor=#6c8ebf;" vertex="1" parent="1">
          <mxGeometry x="320" y="380" width="120" height="60" as="geometry" />
        </mxCell>
        <mxCell id="44svDI2mm8FKR9LoV48q-5" value="Output" style="rounded=1;whiteSpace=wrap;html=1;fontFamily=Computer Modern;fontSource=https%3A%2F%2Fgithub.com%2Fspratt%2FComputer-Modern%2Fblob%2F478ef3d4716bea134f9fc5c14f9c976fda120ee5%2Fcmunbl-webfont.woff;fontSize=20;" vertex="1" parent="1">
          <mxGeometry x="320" y="500" width="120" height="60" as="geometry" />
        </mxCell>
        <mxCell id="44svDI2mm8FKR9LoV48q-9" style="edgeStyle=orthogonalEdgeStyle;rounded=0;orthogonalLoop=1;jettySize=auto;html=1;exitX=0.5;exitY=1;exitDx=0;exitDy=0;fontFamily=Computer Modern;fontSource=https%3A%2F%2Fgithub.com%2Fspratt%2FComputer-Modern%2Fblob%2F478ef3d4716bea134f9fc5c14f9c976fda120ee5%2Fcmunbl-webfont.woff;fontSize=20;" edge="1" parent="1" source="44svDI2mm8FKR9LoV48q-8" target="44svDI2mm8FKR9LoV48q-3">
          <mxGeometry relative="1" as="geometry" />
        </mxCell>
        <mxCell id="44svDI2mm8FKR9LoV48q-8" value="Input" style="rounded=1;whiteSpace=wrap;html=1;fontFamily=Computer Modern;fontSource=https%3A%2F%2Fgithub.com%2Fspratt%2FComputer-Modern%2Fblob%2F478ef3d4716bea134f9fc5c14f9c976fda120ee5%2Fcmunbl-webfont.woff;fontSize=20;" vertex="1" parent="1">
          <mxGeometry x="320" y="140" width="120" height="60" as="geometry" />
        </mxCell>
        <mxCell id="FGlzz3PjhDvQGek2FY6z-2" style="edgeStyle=orthogonalEdgeStyle;rounded=0;orthogonalLoop=1;jettySize=auto;html=1;exitX=0.75;exitY=0;exitDx=0;exitDy=0;entryX=0.75;entryY=1;entryDx=0;entryDy=0;curved=1;fillColor=#f8cecc;strokeColor=#b85450;" edge="1" parent="1" source="44svDI2mm8FKR9LoV48q-3" target="44svDI2mm8FKR9LoV48q-3">
          <mxGeometry relative="1" as="geometry">
            <Array as="points">
              <mxPoint x="410" y="240" />
              <mxPoint x="480" y="240" />
              <mxPoint x="480" y="340" />
              <mxPoint x="410" y="340" />
            </Array>
          </mxGeometry>
        </mxCell>
        <mxCell id="TPxxMApnmHXlQfTDWvSl-1" value="&lt;font face=&quot;Computer Modern&quot;&gt;&lt;span style=&quot;font-size: 20px;&quot;&gt;# of Dense nodes&lt;/span&gt;&lt;/font&gt;" style="text;html=1;align=center;verticalAlign=middle;resizable=0;points=[];autosize=1;strokeColor=none;fillColor=none;" vertex="1" parent="1">
          <mxGeometry x="450" y="390" width="160" height="40" as="geometry" />
        </mxCell>
        <mxCell id="TPxxMApnmHXlQfTDWvSl-2" value="&lt;font face=&quot;Computer Modern&quot;&gt;&lt;span style=&quot;font-size: 20px;&quot;&gt;# of RNN units&lt;/span&gt;&lt;/font&gt;" style="text;html=1;align=center;verticalAlign=middle;resizable=0;points=[];autosize=1;strokeColor=none;fillColor=none;" vertex="1" parent="1">
          <mxGeometry x="480" y="270" width="150" height="40" as="geometry" />
        </mxCell>
      </root>
    </mxGraphModel>
  </diagram>
  <diagram id="Cfa-gGUOssZ4cv-pmnTO" name="LSTM">
    <mxGraphModel grid="1" page="1" gridSize="10" guides="1" tooltips="1" connect="1" arrows="1" fold="1" pageScale="1" pageWidth="827" pageHeight="1169" math="0" shadow="0">
      <root>
        <mxCell id="0" />
        <mxCell id="1" parent="0" />
        <mxCell id="ZHgLJl2z2r7xXvDsejcs-1" value="" style="edgeStyle=orthogonalEdgeStyle;rounded=0;orthogonalLoop=1;jettySize=auto;html=1;fontFamily=Computer Modern;fontSource=https%3A%2F%2Fgithub.com%2Fspratt%2FComputer-Modern%2Fblob%2F478ef3d4716bea134f9fc5c14f9c976fda120ee5%2Fcmunbl-webfont.woff;fontSize=20;" edge="1" parent="1" source="ZHgLJl2z2r7xXvDsejcs-2" target="ZHgLJl2z2r7xXvDsejcs-4">
          <mxGeometry relative="1" as="geometry" />
        </mxCell>
        <mxCell id="ZHgLJl2z2r7xXvDsejcs-2" value="LSTM" style="rounded=1;whiteSpace=wrap;html=1;fontFamily=Computer Modern;fontSource=https%3A%2F%2Fgithub.com%2Fspratt%2FComputer-Modern%2Fblob%2F478ef3d4716bea134f9fc5c14f9c976fda120ee5%2Fcmunbl-webfont.woff;fontSize=20;fillColor=#d5e8d4;strokeColor=#82b366;" vertex="1" parent="1">
          <mxGeometry x="320" y="220" width="120" height="60" as="geometry" />
        </mxCell>
        <mxCell id="ZHgLJl2z2r7xXvDsejcs-3" value="" style="edgeStyle=orthogonalEdgeStyle;rounded=0;orthogonalLoop=1;jettySize=auto;html=1;fontFamily=Computer Modern;fontSource=https%3A%2F%2Fgithub.com%2Fspratt%2FComputer-Modern%2Fblob%2F478ef3d4716bea134f9fc5c14f9c976fda120ee5%2Fcmunbl-webfont.woff;fontSize=20;" edge="1" parent="1" source="ZHgLJl2z2r7xXvDsejcs-4" target="ZHgLJl2z2r7xXvDsejcs-5">
          <mxGeometry relative="1" as="geometry" />
        </mxCell>
        <mxCell id="ZHgLJl2z2r7xXvDsejcs-4" value="Dense" style="rounded=1;whiteSpace=wrap;html=1;fontFamily=Computer Modern;fontSource=https%3A%2F%2Fgithub.com%2Fspratt%2FComputer-Modern%2Fblob%2F478ef3d4716bea134f9fc5c14f9c976fda120ee5%2Fcmunbl-webfont.woff;fontSize=20;fillColor=#dae8fc;strokeColor=#6c8ebf;" vertex="1" parent="1">
          <mxGeometry x="320" y="340" width="120" height="60" as="geometry" />
        </mxCell>
        <mxCell id="ZHgLJl2z2r7xXvDsejcs-5" value="Output" style="rounded=1;whiteSpace=wrap;html=1;fontFamily=Computer Modern;fontSource=https%3A%2F%2Fgithub.com%2Fspratt%2FComputer-Modern%2Fblob%2F478ef3d4716bea134f9fc5c14f9c976fda120ee5%2Fcmunbl-webfont.woff;fontSize=20;" vertex="1" parent="1">
          <mxGeometry x="320" y="460" width="120" height="60" as="geometry" />
        </mxCell>
        <mxCell id="ZHgLJl2z2r7xXvDsejcs-6" style="edgeStyle=orthogonalEdgeStyle;rounded=0;orthogonalLoop=1;jettySize=auto;html=1;exitX=0.5;exitY=1;exitDx=0;exitDy=0;fontFamily=Computer Modern;fontSource=https%3A%2F%2Fgithub.com%2Fspratt%2FComputer-Modern%2Fblob%2F478ef3d4716bea134f9fc5c14f9c976fda120ee5%2Fcmunbl-webfont.woff;fontSize=20;" edge="1" parent="1" source="ZHgLJl2z2r7xXvDsejcs-7" target="ZHgLJl2z2r7xXvDsejcs-2">
          <mxGeometry relative="1" as="geometry" />
        </mxCell>
        <mxCell id="ZHgLJl2z2r7xXvDsejcs-7" value="Input" style="rounded=1;whiteSpace=wrap;html=1;fontFamily=Computer Modern;fontSource=https%3A%2F%2Fgithub.com%2Fspratt%2FComputer-Modern%2Fblob%2F478ef3d4716bea134f9fc5c14f9c976fda120ee5%2Fcmunbl-webfont.woff;fontSize=20;" vertex="1" parent="1">
          <mxGeometry x="320" y="110" width="120" height="60" as="geometry" />
        </mxCell>
        <mxCell id="hgHNn5q3-Y3MZjVyT0pq-1" style="edgeStyle=orthogonalEdgeStyle;rounded=0;orthogonalLoop=1;jettySize=auto;html=1;exitX=0.75;exitY=0;exitDx=0;exitDy=0;entryX=0.75;entryY=1;entryDx=0;entryDy=0;curved=1;fillColor=#d5e8d4;strokeColor=#82b366;" edge="1" parent="1" source="ZHgLJl2z2r7xXvDsejcs-2" target="ZHgLJl2z2r7xXvDsejcs-2">
          <mxGeometry relative="1" as="geometry">
            <Array as="points">
              <mxPoint x="410" y="200" />
              <mxPoint x="480" y="200" />
              <mxPoint x="480" y="300" />
              <mxPoint x="410" y="300" />
            </Array>
          </mxGeometry>
        </mxCell>
        <mxCell id="dODkjA7ECr3A3LXqYGEv-1" value="&lt;font face=&quot;Computer Modern&quot;&gt;&lt;span style=&quot;font-size: 20px;&quot;&gt;# of RNN units in LSTM&lt;/span&gt;&lt;/font&gt;" style="text;html=1;align=center;verticalAlign=middle;resizable=0;points=[];autosize=1;strokeColor=none;fillColor=none;" vertex="1" parent="1">
          <mxGeometry x="480" y="230" width="230" height="40" as="geometry" />
        </mxCell>
        <mxCell id="ob1Z2FjfxmNYFHCOCrXD-1" value="&lt;font face=&quot;Computer Modern&quot;&gt;&lt;span style=&quot;font-size: 20px;&quot;&gt;# of Dense nodes&lt;/span&gt;&lt;/font&gt;" style="text;html=1;align=center;verticalAlign=middle;resizable=0;points=[];autosize=1;strokeColor=none;fillColor=none;" vertex="1" parent="1">
          <mxGeometry x="440" y="350" width="160" height="40" as="geometry" />
        </mxCell>
      </root>
    </mxGraphModel>
  </diagram>
  <diagram id="ftXvBPiqvJUFleBeZUa0" name="RNN-layer">
    <mxGraphModel grid="1" page="1" gridSize="10" guides="1" tooltips="1" connect="1" arrows="1" fold="1" pageScale="1" pageWidth="827" pageHeight="1169" math="0" shadow="0">
      <root>
        <mxCell id="0" />
        <mxCell id="1" parent="0" />
        <mxCell id="u3Y6vpuLzUCcSF8IqO3U-2" value="" style="rounded=1;whiteSpace=wrap;html=1;fontFamily=Computer Modern;fontSource=https%3A%2F%2Fgithub.com%2Fspratt%2FComputer-Modern%2Fblob%2F478ef3d4716bea134f9fc5c14f9c976fda120ee5%2Fcmunbl-webfont.woff;fontSize=20;fillColor=#f8cecc;strokeColor=#b85450;" vertex="1" parent="1">
          <mxGeometry x="160" y="50" width="480" height="40" as="geometry" />
        </mxCell>
        <mxCell id="u3Y6vpuLzUCcSF8IqO3U-25" value="Input&amp;nbsp;&lt;span style=&quot;background-color: initial;&quot;&gt;sequence&lt;/span&gt;" style="text;html=1;align=center;verticalAlign=middle;resizable=0;points=[];autosize=1;strokeColor=none;fillColor=none;fontFamily=Computer Modern;fontSource=https%3A%2F%2Fgithub.com%2Fspratt%2FComputer-Modern%2Fblob%2F478ef3d4716bea134f9fc5c14f9c976fda120ee5%2Fcmunbl-webfont.woff;fontSize=20;" vertex="1" parent="1">
          <mxGeometry x="-140" y="40" width="140" height="40" as="geometry" />
        </mxCell>
        <mxCell id="u3Y6vpuLzUCcSF8IqO3U-60" style="edgeStyle=orthogonalEdgeStyle;rounded=0;orthogonalLoop=1;jettySize=auto;html=1;exitX=0.5;exitY=1;exitDx=0;exitDy=0;entryX=0.5;entryY=1;entryDx=0;entryDy=0;fontFamily=Computer Modern;fontSource=https%3A%2F%2Fgithub.com%2Fspratt%2FComputer-Modern%2Fblob%2F478ef3d4716bea134f9fc5c14f9c976fda120ee5%2Fcmunbl-webfont.woff;fontSize=20;fillColor=#f8cecc;strokeColor=#b85450;curved=1;" edge="1" parent="1" source="u3Y6vpuLzUCcSF8IqO3U-27" target="u3Y6vpuLzUCcSF8IqO3U-28">
          <mxGeometry relative="1" as="geometry" />
        </mxCell>
        <mxCell id="u3Y6vpuLzUCcSF8IqO3U-27" value="" style="rounded=1;whiteSpace=wrap;html=1;fontFamily=Computer Modern;fontSource=https%3A%2F%2Fgithub.com%2Fspratt%2FComputer-Modern%2Fblob%2F478ef3d4716bea134f9fc5c14f9c976fda120ee5%2Fcmunbl-webfont.woff;fontSize=20;fillColor=#f8cecc;strokeColor=#b85450;" vertex="1" parent="1">
          <mxGeometry x="130" y="240" width="40" height="40" as="geometry" />
        </mxCell>
        <mxCell id="u3Y6vpuLzUCcSF8IqO3U-61" style="edgeStyle=orthogonalEdgeStyle;rounded=0;orthogonalLoop=1;jettySize=auto;html=1;exitX=0.5;exitY=1;exitDx=0;exitDy=0;entryX=0.5;entryY=1;entryDx=0;entryDy=0;fontFamily=Computer Modern;fontSource=https%3A%2F%2Fgithub.com%2Fspratt%2FComputer-Modern%2Fblob%2F478ef3d4716bea134f9fc5c14f9c976fda120ee5%2Fcmunbl-webfont.woff;fontSize=20;fillColor=#f8cecc;strokeColor=#b85450;curved=1;" edge="1" parent="1" source="u3Y6vpuLzUCcSF8IqO3U-28" target="u3Y6vpuLzUCcSF8IqO3U-29">
          <mxGeometry relative="1" as="geometry" />
        </mxCell>
        <mxCell id="u3Y6vpuLzUCcSF8IqO3U-28" value="" style="rounded=1;whiteSpace=wrap;html=1;fontFamily=Computer Modern;fontSource=https%3A%2F%2Fgithub.com%2Fspratt%2FComputer-Modern%2Fblob%2F478ef3d4716bea134f9fc5c14f9c976fda120ee5%2Fcmunbl-webfont.woff;fontSize=20;fillColor=#f8cecc;strokeColor=#b85450;" vertex="1" parent="1">
          <mxGeometry x="180" y="240" width="40" height="40" as="geometry" />
        </mxCell>
        <mxCell id="u3Y6vpuLzUCcSF8IqO3U-62" style="edgeStyle=orthogonalEdgeStyle;rounded=0;orthogonalLoop=1;jettySize=auto;html=1;exitX=0.5;exitY=1;exitDx=0;exitDy=0;entryX=0.5;entryY=1;entryDx=0;entryDy=0;fontFamily=Computer Modern;fontSource=https%3A%2F%2Fgithub.com%2Fspratt%2FComputer-Modern%2Fblob%2F478ef3d4716bea134f9fc5c14f9c976fda120ee5%2Fcmunbl-webfont.woff;fontSize=20;fillColor=#f8cecc;strokeColor=#b85450;curved=1;" edge="1" parent="1" source="u3Y6vpuLzUCcSF8IqO3U-29" target="u3Y6vpuLzUCcSF8IqO3U-30">
          <mxGeometry relative="1" as="geometry" />
        </mxCell>
        <mxCell id="u3Y6vpuLzUCcSF8IqO3U-29" value="" style="rounded=1;whiteSpace=wrap;html=1;fontFamily=Computer Modern;fontSource=https%3A%2F%2Fgithub.com%2Fspratt%2FComputer-Modern%2Fblob%2F478ef3d4716bea134f9fc5c14f9c976fda120ee5%2Fcmunbl-webfont.woff;fontSize=20;fillColor=#f8cecc;strokeColor=#b85450;" vertex="1" parent="1">
          <mxGeometry x="230" y="240" width="40" height="40" as="geometry" />
        </mxCell>
        <mxCell id="u3Y6vpuLzUCcSF8IqO3U-63" style="edgeStyle=orthogonalEdgeStyle;rounded=0;orthogonalLoop=1;jettySize=auto;html=1;exitX=0.5;exitY=1;exitDx=0;exitDy=0;entryX=0.5;entryY=1;entryDx=0;entryDy=0;fontFamily=Computer Modern;fontSource=https%3A%2F%2Fgithub.com%2Fspratt%2FComputer-Modern%2Fblob%2F478ef3d4716bea134f9fc5c14f9c976fda120ee5%2Fcmunbl-webfont.woff;fontSize=20;fillColor=#f8cecc;strokeColor=#b85450;curved=1;" edge="1" parent="1" source="u3Y6vpuLzUCcSF8IqO3U-30" target="u3Y6vpuLzUCcSF8IqO3U-31">
          <mxGeometry relative="1" as="geometry" />
        </mxCell>
        <mxCell id="u3Y6vpuLzUCcSF8IqO3U-30" value="" style="rounded=1;whiteSpace=wrap;html=1;fontFamily=Computer Modern;fontSource=https%3A%2F%2Fgithub.com%2Fspratt%2FComputer-Modern%2Fblob%2F478ef3d4716bea134f9fc5c14f9c976fda120ee5%2Fcmunbl-webfont.woff;fontSize=20;fillColor=#f8cecc;strokeColor=#b85450;" vertex="1" parent="1">
          <mxGeometry x="280" y="240" width="40" height="40" as="geometry" />
        </mxCell>
        <mxCell id="u3Y6vpuLzUCcSF8IqO3U-64" style="edgeStyle=orthogonalEdgeStyle;rounded=0;orthogonalLoop=1;jettySize=auto;html=1;exitX=0.5;exitY=1;exitDx=0;exitDy=0;entryX=0.5;entryY=1;entryDx=0;entryDy=0;fontFamily=Computer Modern;fontSource=https%3A%2F%2Fgithub.com%2Fspratt%2FComputer-Modern%2Fblob%2F478ef3d4716bea134f9fc5c14f9c976fda120ee5%2Fcmunbl-webfont.woff;fontSize=20;fillColor=#f8cecc;strokeColor=#b85450;curved=1;" edge="1" parent="1" source="u3Y6vpuLzUCcSF8IqO3U-31" target="u3Y6vpuLzUCcSF8IqO3U-32">
          <mxGeometry relative="1" as="geometry" />
        </mxCell>
        <mxCell id="u3Y6vpuLzUCcSF8IqO3U-31" value="" style="rounded=1;whiteSpace=wrap;html=1;fontFamily=Computer Modern;fontSource=https%3A%2F%2Fgithub.com%2Fspratt%2FComputer-Modern%2Fblob%2F478ef3d4716bea134f9fc5c14f9c976fda120ee5%2Fcmunbl-webfont.woff;fontSize=20;fillColor=#f8cecc;strokeColor=#b85450;" vertex="1" parent="1">
          <mxGeometry x="330" y="240" width="40" height="40" as="geometry" />
        </mxCell>
        <mxCell id="u3Y6vpuLzUCcSF8IqO3U-65" style="edgeStyle=orthogonalEdgeStyle;rounded=0;orthogonalLoop=1;jettySize=auto;html=1;exitX=0.5;exitY=1;exitDx=0;exitDy=0;entryX=0.5;entryY=1;entryDx=0;entryDy=0;fontFamily=Computer Modern;fontSource=https%3A%2F%2Fgithub.com%2Fspratt%2FComputer-Modern%2Fblob%2F478ef3d4716bea134f9fc5c14f9c976fda120ee5%2Fcmunbl-webfont.woff;fontSize=20;fillColor=#f8cecc;strokeColor=#b85450;curved=1;" edge="1" parent="1" source="u3Y6vpuLzUCcSF8IqO3U-32" target="u3Y6vpuLzUCcSF8IqO3U-33">
          <mxGeometry relative="1" as="geometry" />
        </mxCell>
        <mxCell id="u3Y6vpuLzUCcSF8IqO3U-32" value="" style="rounded=1;whiteSpace=wrap;html=1;fontFamily=Computer Modern;fontSource=https%3A%2F%2Fgithub.com%2Fspratt%2FComputer-Modern%2Fblob%2F478ef3d4716bea134f9fc5c14f9c976fda120ee5%2Fcmunbl-webfont.woff;fontSize=20;fillColor=#f8cecc;strokeColor=#b85450;" vertex="1" parent="1">
          <mxGeometry x="380" y="240" width="40" height="40" as="geometry" />
        </mxCell>
        <mxCell id="u3Y6vpuLzUCcSF8IqO3U-66" style="edgeStyle=orthogonalEdgeStyle;rounded=0;orthogonalLoop=1;jettySize=auto;html=1;exitX=0.5;exitY=1;exitDx=0;exitDy=0;entryX=0.5;entryY=1;entryDx=0;entryDy=0;fontFamily=Computer Modern;fontSource=https%3A%2F%2Fgithub.com%2Fspratt%2FComputer-Modern%2Fblob%2F478ef3d4716bea134f9fc5c14f9c976fda120ee5%2Fcmunbl-webfont.woff;fontSize=20;fillColor=#f8cecc;strokeColor=#b85450;curved=1;" edge="1" parent="1" source="u3Y6vpuLzUCcSF8IqO3U-33" target="u3Y6vpuLzUCcSF8IqO3U-34">
          <mxGeometry relative="1" as="geometry" />
        </mxCell>
        <mxCell id="u3Y6vpuLzUCcSF8IqO3U-33" value="" style="rounded=1;whiteSpace=wrap;html=1;fontFamily=Computer Modern;fontSource=https%3A%2F%2Fgithub.com%2Fspratt%2FComputer-Modern%2Fblob%2F478ef3d4716bea134f9fc5c14f9c976fda120ee5%2Fcmunbl-webfont.woff;fontSize=20;fillColor=#f8cecc;strokeColor=#b85450;" vertex="1" parent="1">
          <mxGeometry x="430" y="240" width="40" height="40" as="geometry" />
        </mxCell>
        <mxCell id="u3Y6vpuLzUCcSF8IqO3U-67" style="edgeStyle=orthogonalEdgeStyle;rounded=0;orthogonalLoop=1;jettySize=auto;html=1;exitX=0.5;exitY=1;exitDx=0;exitDy=0;entryX=0.5;entryY=1;entryDx=0;entryDy=0;fontFamily=Computer Modern;fontSource=https%3A%2F%2Fgithub.com%2Fspratt%2FComputer-Modern%2Fblob%2F478ef3d4716bea134f9fc5c14f9c976fda120ee5%2Fcmunbl-webfont.woff;fontSize=20;fillColor=#f8cecc;strokeColor=#b85450;curved=1;" edge="1" parent="1" source="u3Y6vpuLzUCcSF8IqO3U-34" target="u3Y6vpuLzUCcSF8IqO3U-36">
          <mxGeometry relative="1" as="geometry" />
        </mxCell>
        <mxCell id="u3Y6vpuLzUCcSF8IqO3U-34" value="" style="rounded=1;whiteSpace=wrap;html=1;fontFamily=Computer Modern;fontSource=https%3A%2F%2Fgithub.com%2Fspratt%2FComputer-Modern%2Fblob%2F478ef3d4716bea134f9fc5c14f9c976fda120ee5%2Fcmunbl-webfont.woff;fontSize=20;fillColor=#f8cecc;strokeColor=#b85450;" vertex="1" parent="1">
          <mxGeometry x="480" y="240" width="40" height="40" as="geometry" />
        </mxCell>
        <mxCell id="u3Y6vpuLzUCcSF8IqO3U-68" style="edgeStyle=orthogonalEdgeStyle;rounded=0;orthogonalLoop=1;jettySize=auto;html=1;exitX=0.5;exitY=1;exitDx=0;exitDy=0;entryX=0.5;entryY=1;entryDx=0;entryDy=0;fontFamily=Computer Modern;fontSource=https%3A%2F%2Fgithub.com%2Fspratt%2FComputer-Modern%2Fblob%2F478ef3d4716bea134f9fc5c14f9c976fda120ee5%2Fcmunbl-webfont.woff;fontSize=20;fillColor=#f8cecc;strokeColor=#b85450;curved=1;" edge="1" parent="1" source="u3Y6vpuLzUCcSF8IqO3U-36" target="u3Y6vpuLzUCcSF8IqO3U-37">
          <mxGeometry relative="1" as="geometry" />
        </mxCell>
        <mxCell id="u3Y6vpuLzUCcSF8IqO3U-36" value="" style="rounded=1;whiteSpace=wrap;html=1;fontFamily=Computer Modern;fontSource=https%3A%2F%2Fgithub.com%2Fspratt%2FComputer-Modern%2Fblob%2F478ef3d4716bea134f9fc5c14f9c976fda120ee5%2Fcmunbl-webfont.woff;fontSize=20;fillColor=#f8cecc;strokeColor=#b85450;" vertex="1" parent="1">
          <mxGeometry x="530" y="240" width="40" height="40" as="geometry" />
        </mxCell>
        <mxCell id="u3Y6vpuLzUCcSF8IqO3U-69" style="edgeStyle=orthogonalEdgeStyle;rounded=0;orthogonalLoop=1;jettySize=auto;html=1;exitX=0.5;exitY=1;exitDx=0;exitDy=0;entryX=0.5;entryY=1;entryDx=0;entryDy=0;fontFamily=Computer Modern;fontSource=https%3A%2F%2Fgithub.com%2Fspratt%2FComputer-Modern%2Fblob%2F478ef3d4716bea134f9fc5c14f9c976fda120ee5%2Fcmunbl-webfont.woff;fontSize=20;fillColor=#f8cecc;strokeColor=#b85450;curved=1;" edge="1" parent="1" source="u3Y6vpuLzUCcSF8IqO3U-37" target="u3Y6vpuLzUCcSF8IqO3U-38">
          <mxGeometry relative="1" as="geometry" />
        </mxCell>
        <mxCell id="u3Y6vpuLzUCcSF8IqO3U-37" value="" style="rounded=1;whiteSpace=wrap;html=1;fontFamily=Computer Modern;fontSource=https%3A%2F%2Fgithub.com%2Fspratt%2FComputer-Modern%2Fblob%2F478ef3d4716bea134f9fc5c14f9c976fda120ee5%2Fcmunbl-webfont.woff;fontSize=20;fillColor=#f8cecc;strokeColor=#b85450;" vertex="1" parent="1">
          <mxGeometry x="580" y="240" width="40" height="40" as="geometry" />
        </mxCell>
        <mxCell id="u3Y6vpuLzUCcSF8IqO3U-93" style="edgeStyle=orthogonalEdgeStyle;rounded=0;orthogonalLoop=1;jettySize=auto;html=1;exitX=1;exitY=0.5;exitDx=0;exitDy=0;entryX=1;entryY=0;entryDx=0;entryDy=0;fontFamily=Computer Modern;fontSource=https%3A%2F%2Fgithub.com%2Fspratt%2FComputer-Modern%2Fblob%2F478ef3d4716bea134f9fc5c14f9c976fda120ee5%2Fcmunbl-webfont.woff;fontSize=20;fillColor=#f8cecc;strokeColor=#b85450;curved=1;" edge="1" parent="1" source="u3Y6vpuLzUCcSF8IqO3U-38" target="u3Y6vpuLzUCcSF8IqO3U-77">
          <mxGeometry relative="1" as="geometry">
            <Array as="points">
              <mxPoint x="750" y="260" />
              <mxPoint x="750" y="340" />
              <mxPoint x="380" y="340" />
            </Array>
          </mxGeometry>
        </mxCell>
        <mxCell id="BhSCL6gIzYFrFu6HRPIb-2" style="edgeStyle=orthogonalEdgeStyle;rounded=0;orthogonalLoop=1;jettySize=auto;html=1;exitX=1;exitY=0.5;exitDx=0;exitDy=0;fillColor=#f8cecc;strokeColor=#b85450;" edge="1" parent="1" source="u3Y6vpuLzUCcSF8IqO3U-38" target="BhSCL6gIzYFrFu6HRPIb-4">
          <mxGeometry relative="1" as="geometry">
            <mxPoint x="740" y="260" as="targetPoint" />
          </mxGeometry>
        </mxCell>
        <mxCell id="u3Y6vpuLzUCcSF8IqO3U-38" value="" style="rounded=1;whiteSpace=wrap;html=1;fontFamily=Computer Modern;fontSource=https%3A%2F%2Fgithub.com%2Fspratt%2FComputer-Modern%2Fblob%2F478ef3d4716bea134f9fc5c14f9c976fda120ee5%2Fcmunbl-webfont.woff;fontSize=20;fillColor=#f8cecc;strokeColor=#b85450;" vertex="1" parent="1">
          <mxGeometry x="630" y="240" width="40" height="40" as="geometry" />
        </mxCell>
        <mxCell id="u3Y6vpuLzUCcSF8IqO3U-48" style="edgeStyle=orthogonalEdgeStyle;rounded=0;orthogonalLoop=1;jettySize=auto;html=1;fontFamily=Computer Modern;fontSource=https%3A%2F%2Fgithub.com%2Fspratt%2FComputer-Modern%2Fblob%2F478ef3d4716bea134f9fc5c14f9c976fda120ee5%2Fcmunbl-webfont.woff;fontSize=20;fillColor=#f8cecc;strokeColor=#b85450;curved=1;" edge="1" parent="1" source="u3Y6vpuLzUCcSF8IqO3U-3" target="u3Y6vpuLzUCcSF8IqO3U-27">
          <mxGeometry relative="1" as="geometry" />
        </mxCell>
        <mxCell id="u3Y6vpuLzUCcSF8IqO3U-3" value="" style="rounded=1;whiteSpace=wrap;html=1;opacity=50;fontFamily=Computer Modern;fontSource=https%3A%2F%2Fgithub.com%2Fspratt%2FComputer-Modern%2Fblob%2F478ef3d4716bea134f9fc5c14f9c976fda120ee5%2Fcmunbl-webfont.woff;fontSize=20;fillColor=#f8cecc;strokeColor=#b85450;" vertex="1" parent="1">
          <mxGeometry x="160" y="50" width="40" height="40" as="geometry" />
        </mxCell>
        <mxCell id="u3Y6vpuLzUCcSF8IqO3U-49" style="edgeStyle=orthogonalEdgeStyle;rounded=0;orthogonalLoop=1;jettySize=auto;html=1;entryX=0.5;entryY=0;entryDx=0;entryDy=0;fontFamily=Computer Modern;fontSource=https%3A%2F%2Fgithub.com%2Fspratt%2FComputer-Modern%2Fblob%2F478ef3d4716bea134f9fc5c14f9c976fda120ee5%2Fcmunbl-webfont.woff;fontSize=20;fillColor=#f8cecc;strokeColor=#b85450;curved=1;" edge="1" parent="1" source="u3Y6vpuLzUCcSF8IqO3U-4" target="u3Y6vpuLzUCcSF8IqO3U-28">
          <mxGeometry relative="1" as="geometry" />
        </mxCell>
        <mxCell id="u3Y6vpuLzUCcSF8IqO3U-4" value="" style="rounded=1;whiteSpace=wrap;html=1;opacity=50;fontFamily=Computer Modern;fontSource=https%3A%2F%2Fgithub.com%2Fspratt%2FComputer-Modern%2Fblob%2F478ef3d4716bea134f9fc5c14f9c976fda120ee5%2Fcmunbl-webfont.woff;fontSize=20;fillColor=#f8cecc;strokeColor=#b85450;" vertex="1" parent="1">
          <mxGeometry x="200" y="50" width="40" height="40" as="geometry" />
        </mxCell>
        <mxCell id="u3Y6vpuLzUCcSF8IqO3U-50" style="edgeStyle=orthogonalEdgeStyle;rounded=0;orthogonalLoop=1;jettySize=auto;html=1;exitX=0.5;exitY=1;exitDx=0;exitDy=0;entryX=0.5;entryY=0;entryDx=0;entryDy=0;fontFamily=Computer Modern;fontSource=https%3A%2F%2Fgithub.com%2Fspratt%2FComputer-Modern%2Fblob%2F478ef3d4716bea134f9fc5c14f9c976fda120ee5%2Fcmunbl-webfont.woff;fontSize=20;fillColor=#f8cecc;strokeColor=#b85450;curved=1;" edge="1" parent="1" source="u3Y6vpuLzUCcSF8IqO3U-5" target="u3Y6vpuLzUCcSF8IqO3U-29">
          <mxGeometry relative="1" as="geometry" />
        </mxCell>
        <mxCell id="u3Y6vpuLzUCcSF8IqO3U-5" value="" style="rounded=1;whiteSpace=wrap;html=1;opacity=50;fontFamily=Computer Modern;fontSource=https%3A%2F%2Fgithub.com%2Fspratt%2FComputer-Modern%2Fblob%2F478ef3d4716bea134f9fc5c14f9c976fda120ee5%2Fcmunbl-webfont.woff;fontSize=20;fillColor=#f8cecc;strokeColor=#b85450;" vertex="1" parent="1">
          <mxGeometry x="240" y="50" width="40" height="40" as="geometry" />
        </mxCell>
        <mxCell id="u3Y6vpuLzUCcSF8IqO3U-51" style="edgeStyle=orthogonalEdgeStyle;rounded=0;orthogonalLoop=1;jettySize=auto;html=1;entryX=0.5;entryY=0;entryDx=0;entryDy=0;fontFamily=Computer Modern;fontSource=https%3A%2F%2Fgithub.com%2Fspratt%2FComputer-Modern%2Fblob%2F478ef3d4716bea134f9fc5c14f9c976fda120ee5%2Fcmunbl-webfont.woff;fontSize=20;fillColor=#f8cecc;strokeColor=#b85450;curved=1;" edge="1" parent="1" source="u3Y6vpuLzUCcSF8IqO3U-6" target="u3Y6vpuLzUCcSF8IqO3U-30">
          <mxGeometry relative="1" as="geometry" />
        </mxCell>
        <mxCell id="u3Y6vpuLzUCcSF8IqO3U-6" value="" style="rounded=1;whiteSpace=wrap;html=1;opacity=50;fontFamily=Computer Modern;fontSource=https%3A%2F%2Fgithub.com%2Fspratt%2FComputer-Modern%2Fblob%2F478ef3d4716bea134f9fc5c14f9c976fda120ee5%2Fcmunbl-webfont.woff;fontSize=20;fillColor=#f8cecc;strokeColor=#b85450;" vertex="1" parent="1">
          <mxGeometry x="280" y="50" width="40" height="40" as="geometry" />
        </mxCell>
        <mxCell id="u3Y6vpuLzUCcSF8IqO3U-52" style="edgeStyle=orthogonalEdgeStyle;rounded=0;orthogonalLoop=1;jettySize=auto;html=1;exitX=0.5;exitY=1;exitDx=0;exitDy=0;fontFamily=Computer Modern;fontSource=https%3A%2F%2Fgithub.com%2Fspratt%2FComputer-Modern%2Fblob%2F478ef3d4716bea134f9fc5c14f9c976fda120ee5%2Fcmunbl-webfont.woff;fontSize=20;fillColor=#f8cecc;strokeColor=#b85450;curved=1;" edge="1" parent="1" source="u3Y6vpuLzUCcSF8IqO3U-11" target="u3Y6vpuLzUCcSF8IqO3U-31">
          <mxGeometry relative="1" as="geometry" />
        </mxCell>
        <mxCell id="u3Y6vpuLzUCcSF8IqO3U-11" value="" style="rounded=1;whiteSpace=wrap;html=1;opacity=50;fontFamily=Computer Modern;fontSource=https%3A%2F%2Fgithub.com%2Fspratt%2FComputer-Modern%2Fblob%2F478ef3d4716bea134f9fc5c14f9c976fda120ee5%2Fcmunbl-webfont.woff;fontSize=20;fillColor=#f8cecc;strokeColor=#b85450;" vertex="1" parent="1">
          <mxGeometry x="320" y="50" width="40" height="40" as="geometry" />
        </mxCell>
        <mxCell id="u3Y6vpuLzUCcSF8IqO3U-53" style="edgeStyle=orthogonalEdgeStyle;rounded=0;orthogonalLoop=1;jettySize=auto;html=1;exitX=0.5;exitY=1;exitDx=0;exitDy=0;entryX=0.5;entryY=0;entryDx=0;entryDy=0;fontFamily=Computer Modern;fontSource=https%3A%2F%2Fgithub.com%2Fspratt%2FComputer-Modern%2Fblob%2F478ef3d4716bea134f9fc5c14f9c976fda120ee5%2Fcmunbl-webfont.woff;fontSize=20;fillColor=#f8cecc;strokeColor=#b85450;curved=1;" edge="1" parent="1" source="u3Y6vpuLzUCcSF8IqO3U-12" target="u3Y6vpuLzUCcSF8IqO3U-32">
          <mxGeometry relative="1" as="geometry" />
        </mxCell>
        <mxCell id="u3Y6vpuLzUCcSF8IqO3U-12" value="" style="rounded=1;whiteSpace=wrap;html=1;opacity=50;fontFamily=Computer Modern;fontSource=https%3A%2F%2Fgithub.com%2Fspratt%2FComputer-Modern%2Fblob%2F478ef3d4716bea134f9fc5c14f9c976fda120ee5%2Fcmunbl-webfont.woff;fontSize=20;fillColor=#f8cecc;strokeColor=#b85450;" vertex="1" parent="1">
          <mxGeometry x="360" y="50" width="40" height="40" as="geometry" />
        </mxCell>
        <mxCell id="u3Y6vpuLzUCcSF8IqO3U-54" style="edgeStyle=orthogonalEdgeStyle;rounded=0;orthogonalLoop=1;jettySize=auto;html=1;exitX=0.5;exitY=1;exitDx=0;exitDy=0;entryX=0.5;entryY=0;entryDx=0;entryDy=0;fontFamily=Computer Modern;fontSource=https%3A%2F%2Fgithub.com%2Fspratt%2FComputer-Modern%2Fblob%2F478ef3d4716bea134f9fc5c14f9c976fda120ee5%2Fcmunbl-webfont.woff;fontSize=20;fillColor=#f8cecc;strokeColor=#b85450;curved=1;" edge="1" parent="1" source="u3Y6vpuLzUCcSF8IqO3U-13" target="u3Y6vpuLzUCcSF8IqO3U-33">
          <mxGeometry relative="1" as="geometry" />
        </mxCell>
        <mxCell id="u3Y6vpuLzUCcSF8IqO3U-13" value="" style="rounded=1;whiteSpace=wrap;html=1;opacity=50;fontFamily=Computer Modern;fontSource=https%3A%2F%2Fgithub.com%2Fspratt%2FComputer-Modern%2Fblob%2F478ef3d4716bea134f9fc5c14f9c976fda120ee5%2Fcmunbl-webfont.woff;fontSize=20;fillColor=#f8cecc;strokeColor=#b85450;" vertex="1" parent="1">
          <mxGeometry x="400" y="50" width="40" height="40" as="geometry" />
        </mxCell>
        <mxCell id="u3Y6vpuLzUCcSF8IqO3U-55" style="edgeStyle=orthogonalEdgeStyle;rounded=0;orthogonalLoop=1;jettySize=auto;html=1;exitX=0.5;exitY=1;exitDx=0;exitDy=0;entryX=0.5;entryY=0;entryDx=0;entryDy=0;fontFamily=Computer Modern;fontSource=https%3A%2F%2Fgithub.com%2Fspratt%2FComputer-Modern%2Fblob%2F478ef3d4716bea134f9fc5c14f9c976fda120ee5%2Fcmunbl-webfont.woff;fontSize=20;fillColor=#f8cecc;strokeColor=#b85450;curved=1;" edge="1" parent="1" source="u3Y6vpuLzUCcSF8IqO3U-14" target="u3Y6vpuLzUCcSF8IqO3U-34">
          <mxGeometry relative="1" as="geometry" />
        </mxCell>
        <mxCell id="u3Y6vpuLzUCcSF8IqO3U-14" value="" style="rounded=1;whiteSpace=wrap;html=1;opacity=50;fontFamily=Computer Modern;fontSource=https%3A%2F%2Fgithub.com%2Fspratt%2FComputer-Modern%2Fblob%2F478ef3d4716bea134f9fc5c14f9c976fda120ee5%2Fcmunbl-webfont.woff;fontSize=20;fillColor=#f8cecc;strokeColor=#b85450;" vertex="1" parent="1">
          <mxGeometry x="440" y="50" width="40" height="40" as="geometry" />
        </mxCell>
        <mxCell id="u3Y6vpuLzUCcSF8IqO3U-56" style="edgeStyle=orthogonalEdgeStyle;rounded=0;orthogonalLoop=1;jettySize=auto;html=1;exitX=0.5;exitY=1;exitDx=0;exitDy=0;entryX=0.5;entryY=0;entryDx=0;entryDy=0;fontFamily=Computer Modern;fontSource=https%3A%2F%2Fgithub.com%2Fspratt%2FComputer-Modern%2Fblob%2F478ef3d4716bea134f9fc5c14f9c976fda120ee5%2Fcmunbl-webfont.woff;fontSize=20;fillColor=#f8cecc;strokeColor=#b85450;curved=1;" edge="1" parent="1" source="u3Y6vpuLzUCcSF8IqO3U-15" target="u3Y6vpuLzUCcSF8IqO3U-36">
          <mxGeometry relative="1" as="geometry" />
        </mxCell>
        <mxCell id="u3Y6vpuLzUCcSF8IqO3U-15" value="" style="rounded=1;whiteSpace=wrap;html=1;opacity=50;fontFamily=Computer Modern;fontSource=https%3A%2F%2Fgithub.com%2Fspratt%2FComputer-Modern%2Fblob%2F478ef3d4716bea134f9fc5c14f9c976fda120ee5%2Fcmunbl-webfont.woff;fontSize=20;fillColor=#f8cecc;strokeColor=#b85450;" vertex="1" parent="1">
          <mxGeometry x="480" y="50" width="40" height="40" as="geometry" />
        </mxCell>
        <mxCell id="u3Y6vpuLzUCcSF8IqO3U-57" style="edgeStyle=orthogonalEdgeStyle;rounded=0;orthogonalLoop=1;jettySize=auto;html=1;exitX=0.5;exitY=1;exitDx=0;exitDy=0;entryX=0.5;entryY=0;entryDx=0;entryDy=0;fontFamily=Computer Modern;fontSource=https%3A%2F%2Fgithub.com%2Fspratt%2FComputer-Modern%2Fblob%2F478ef3d4716bea134f9fc5c14f9c976fda120ee5%2Fcmunbl-webfont.woff;fontSize=20;fillColor=#f8cecc;strokeColor=#b85450;curved=1;" edge="1" parent="1" source="u3Y6vpuLzUCcSF8IqO3U-16" target="u3Y6vpuLzUCcSF8IqO3U-37">
          <mxGeometry relative="1" as="geometry" />
        </mxCell>
        <mxCell id="u3Y6vpuLzUCcSF8IqO3U-16" value="" style="rounded=1;whiteSpace=wrap;html=1;opacity=50;fontFamily=Computer Modern;fontSource=https%3A%2F%2Fgithub.com%2Fspratt%2FComputer-Modern%2Fblob%2F478ef3d4716bea134f9fc5c14f9c976fda120ee5%2Fcmunbl-webfont.woff;fontSize=20;fillColor=#f8cecc;strokeColor=#b85450;" vertex="1" parent="1">
          <mxGeometry x="520" y="50" width="40" height="40" as="geometry" />
        </mxCell>
        <mxCell id="u3Y6vpuLzUCcSF8IqO3U-17" value="" style="rounded=1;whiteSpace=wrap;html=1;opacity=50;fontFamily=Computer Modern;fontSource=https%3A%2F%2Fgithub.com%2Fspratt%2FComputer-Modern%2Fblob%2F478ef3d4716bea134f9fc5c14f9c976fda120ee5%2Fcmunbl-webfont.woff;fontSize=20;fillColor=#f8cecc;strokeColor=#b85450;" vertex="1" parent="1">
          <mxGeometry x="560" y="50" width="40" height="40" as="geometry" />
        </mxCell>
        <mxCell id="u3Y6vpuLzUCcSF8IqO3U-58" style="edgeStyle=orthogonalEdgeStyle;rounded=0;orthogonalLoop=1;jettySize=auto;html=1;exitX=0.5;exitY=1;exitDx=0;exitDy=0;entryX=0.5;entryY=0;entryDx=0;entryDy=0;fontFamily=Computer Modern;fontSource=https%3A%2F%2Fgithub.com%2Fspratt%2FComputer-Modern%2Fblob%2F478ef3d4716bea134f9fc5c14f9c976fda120ee5%2Fcmunbl-webfont.woff;fontSize=20;fillColor=#f8cecc;strokeColor=#b85450;curved=1;" edge="1" parent="1" source="u3Y6vpuLzUCcSF8IqO3U-18" target="u3Y6vpuLzUCcSF8IqO3U-38">
          <mxGeometry relative="1" as="geometry" />
        </mxCell>
        <mxCell id="u3Y6vpuLzUCcSF8IqO3U-18" value="" style="rounded=1;whiteSpace=wrap;html=1;opacity=50;fontFamily=Computer Modern;fontSource=https%3A%2F%2Fgithub.com%2Fspratt%2FComputer-Modern%2Fblob%2F478ef3d4716bea134f9fc5c14f9c976fda120ee5%2Fcmunbl-webfont.woff;fontSize=20;fillColor=#f8cecc;strokeColor=#b85450;" vertex="1" parent="1">
          <mxGeometry x="600" y="50" width="40" height="40" as="geometry" />
        </mxCell>
        <mxCell id="u3Y6vpuLzUCcSF8IqO3U-71" value="" style="rounded=1;whiteSpace=wrap;html=1;fontFamily=Computer Modern;fontSource=https%3A%2F%2Fgithub.com%2Fspratt%2FComputer-Modern%2Fblob%2F478ef3d4716bea134f9fc5c14f9c976fda120ee5%2Fcmunbl-webfont.woff;fontSize=20;fillColor=#f8cecc;strokeColor=#b85450;" vertex="1" parent="1">
          <mxGeometry x="140" y="400" width="480" height="40" as="geometry" />
        </mxCell>
        <mxCell id="u3Y6vpuLzUCcSF8IqO3U-72" value="" style="rounded=1;whiteSpace=wrap;html=1;opacity=50;fontFamily=Computer Modern;fontSource=https%3A%2F%2Fgithub.com%2Fspratt%2FComputer-Modern%2Fblob%2F478ef3d4716bea134f9fc5c14f9c976fda120ee5%2Fcmunbl-webfont.woff;fontSize=20;fillColor=#f8cecc;strokeColor=#b85450;" vertex="1" parent="1">
          <mxGeometry x="140" y="400" width="40" height="40" as="geometry" />
        </mxCell>
        <mxCell id="u3Y6vpuLzUCcSF8IqO3U-73" value="" style="rounded=1;whiteSpace=wrap;html=1;opacity=50;fontFamily=Computer Modern;fontSource=https%3A%2F%2Fgithub.com%2Fspratt%2FComputer-Modern%2Fblob%2F478ef3d4716bea134f9fc5c14f9c976fda120ee5%2Fcmunbl-webfont.woff;fontSize=20;fillColor=#f8cecc;strokeColor=#b85450;" vertex="1" parent="1">
          <mxGeometry x="180" y="400" width="40" height="40" as="geometry" />
        </mxCell>
        <mxCell id="u3Y6vpuLzUCcSF8IqO3U-74" value="" style="rounded=1;whiteSpace=wrap;html=1;opacity=50;fontFamily=Computer Modern;fontSource=https%3A%2F%2Fgithub.com%2Fspratt%2FComputer-Modern%2Fblob%2F478ef3d4716bea134f9fc5c14f9c976fda120ee5%2Fcmunbl-webfont.woff;fontSize=20;fillColor=#f8cecc;strokeColor=#b85450;" vertex="1" parent="1">
          <mxGeometry x="220" y="400" width="40" height="40" as="geometry" />
        </mxCell>
        <mxCell id="u3Y6vpuLzUCcSF8IqO3U-75" value="" style="rounded=1;whiteSpace=wrap;html=1;opacity=50;fontFamily=Computer Modern;fontSource=https%3A%2F%2Fgithub.com%2Fspratt%2FComputer-Modern%2Fblob%2F478ef3d4716bea134f9fc5c14f9c976fda120ee5%2Fcmunbl-webfont.woff;fontSize=20;fillColor=#f8cecc;strokeColor=#b85450;" vertex="1" parent="1">
          <mxGeometry x="260" y="400" width="40" height="40" as="geometry" />
        </mxCell>
        <mxCell id="u3Y6vpuLzUCcSF8IqO3U-76" value="" style="rounded=1;whiteSpace=wrap;html=1;opacity=50;fontFamily=Computer Modern;fontSource=https%3A%2F%2Fgithub.com%2Fspratt%2FComputer-Modern%2Fblob%2F478ef3d4716bea134f9fc5c14f9c976fda120ee5%2Fcmunbl-webfont.woff;fontSize=20;fillColor=#f8cecc;strokeColor=#b85450;" vertex="1" parent="1">
          <mxGeometry x="300" y="400" width="40" height="40" as="geometry" />
        </mxCell>
        <mxCell id="u3Y6vpuLzUCcSF8IqO3U-77" value="" style="rounded=1;whiteSpace=wrap;html=1;opacity=50;fontFamily=Computer Modern;fontSource=https%3A%2F%2Fgithub.com%2Fspratt%2FComputer-Modern%2Fblob%2F478ef3d4716bea134f9fc5c14f9c976fda120ee5%2Fcmunbl-webfont.woff;fontSize=20;fillColor=#f8cecc;strokeColor=#b85450;" vertex="1" parent="1">
          <mxGeometry x="340" y="400" width="40" height="40" as="geometry" />
        </mxCell>
        <mxCell id="u3Y6vpuLzUCcSF8IqO3U-78" value="" style="rounded=1;whiteSpace=wrap;html=1;opacity=50;fontFamily=Computer Modern;fontSource=https%3A%2F%2Fgithub.com%2Fspratt%2FComputer-Modern%2Fblob%2F478ef3d4716bea134f9fc5c14f9c976fda120ee5%2Fcmunbl-webfont.woff;fontSize=20;fillColor=#f8cecc;strokeColor=#b85450;" vertex="1" parent="1">
          <mxGeometry x="380" y="400" width="40" height="40" as="geometry" />
        </mxCell>
        <mxCell id="u3Y6vpuLzUCcSF8IqO3U-79" value="" style="rounded=1;whiteSpace=wrap;html=1;opacity=50;fontFamily=Computer Modern;fontSource=https%3A%2F%2Fgithub.com%2Fspratt%2FComputer-Modern%2Fblob%2F478ef3d4716bea134f9fc5c14f9c976fda120ee5%2Fcmunbl-webfont.woff;fontSize=20;fillColor=#f8cecc;strokeColor=#b85450;" vertex="1" parent="1">
          <mxGeometry x="420" y="400" width="40" height="40" as="geometry" />
        </mxCell>
        <mxCell id="u3Y6vpuLzUCcSF8IqO3U-80" value="" style="rounded=1;whiteSpace=wrap;html=1;opacity=50;fontFamily=Computer Modern;fontSource=https%3A%2F%2Fgithub.com%2Fspratt%2FComputer-Modern%2Fblob%2F478ef3d4716bea134f9fc5c14f9c976fda120ee5%2Fcmunbl-webfont.woff;fontSize=20;fillColor=#f8cecc;strokeColor=#b85450;" vertex="1" parent="1">
          <mxGeometry x="460" y="400" width="40" height="40" as="geometry" />
        </mxCell>
        <mxCell id="u3Y6vpuLzUCcSF8IqO3U-81" value="" style="rounded=1;whiteSpace=wrap;html=1;opacity=50;fontFamily=Computer Modern;fontSource=https%3A%2F%2Fgithub.com%2Fspratt%2FComputer-Modern%2Fblob%2F478ef3d4716bea134f9fc5c14f9c976fda120ee5%2Fcmunbl-webfont.woff;fontSize=20;fillColor=#f8cecc;strokeColor=#b85450;" vertex="1" parent="1">
          <mxGeometry x="500" y="400" width="40" height="40" as="geometry" />
        </mxCell>
        <mxCell id="u3Y6vpuLzUCcSF8IqO3U-82" value="" style="rounded=1;whiteSpace=wrap;html=1;opacity=50;fontFamily=Computer Modern;fontSource=https%3A%2F%2Fgithub.com%2Fspratt%2FComputer-Modern%2Fblob%2F478ef3d4716bea134f9fc5c14f9c976fda120ee5%2Fcmunbl-webfont.woff;fontSize=20;fillColor=#f8cecc;strokeColor=#b85450;" vertex="1" parent="1">
          <mxGeometry x="540" y="400" width="40" height="40" as="geometry" />
        </mxCell>
        <mxCell id="u3Y6vpuLzUCcSF8IqO3U-83" value="" style="rounded=1;whiteSpace=wrap;html=1;opacity=50;fontFamily=Computer Modern;fontSource=https%3A%2F%2Fgithub.com%2Fspratt%2FComputer-Modern%2Fblob%2F478ef3d4716bea134f9fc5c14f9c976fda120ee5%2Fcmunbl-webfont.woff;fontSize=20;fillColor=#f8cecc;strokeColor=#b85450;" vertex="1" parent="1">
          <mxGeometry x="580" y="400" width="40" height="40" as="geometry" />
        </mxCell>
        <mxCell id="u3Y6vpuLzUCcSF8IqO3U-84" value="Hidden RNN-nodes" style="text;html=1;align=center;verticalAlign=middle;resizable=0;points=[];autosize=1;strokeColor=none;fillColor=none;fontFamily=Computer Modern;fontSource=https%3A%2F%2Fgithub.com%2Fspratt%2FComputer-Modern%2Fblob%2F478ef3d4716bea134f9fc5c14f9c976fda120ee5%2Fcmunbl-webfont.woff;fontSize=20;" vertex="1" parent="1">
          <mxGeometry x="-180" y="240" width="180" height="40" as="geometry" />
        </mxCell>
        <mxCell id="u3Y6vpuLzUCcSF8IqO3U-85" value="Output sequence" style="text;html=1;align=center;verticalAlign=middle;resizable=0;points=[];autosize=1;strokeColor=none;fillColor=none;fontFamily=Computer Modern;fontSource=https%3A%2F%2Fgithub.com%2Fspratt%2FComputer-Modern%2Fblob%2F478ef3d4716bea134f9fc5c14f9c976fda120ee5%2Fcmunbl-webfont.woff;fontSize=20;" vertex="1" parent="1">
          <mxGeometry x="-160" y="400" width="160" height="40" as="geometry" />
        </mxCell>
        <mxCell id="BhSCL6gIzYFrFu6HRPIb-3" style="edgeStyle=orthogonalEdgeStyle;rounded=0;orthogonalLoop=1;jettySize=auto;html=1;entryX=0;entryY=0.5;entryDx=0;entryDy=0;fillColor=#f8cecc;strokeColor=#b85450;" edge="1" parent="1" source="BhSCL6gIzYFrFu6HRPIb-1" target="u3Y6vpuLzUCcSF8IqO3U-27">
          <mxGeometry relative="1" as="geometry" />
        </mxCell>
        <mxCell id="BhSCL6gIzYFrFu6HRPIb-1" value="H&lt;sub&gt;t-1&lt;/sub&gt;" style="text;html=1;align=center;verticalAlign=middle;resizable=0;points=[];autosize=1;strokeColor=none;fillColor=none;fontFamily=Computer Modern;fontSource=https%3A%2F%2Fgithub.com%2Fspratt%2FComputer-Modern%2Fblob%2F478ef3d4716bea134f9fc5c14f9c976fda120ee5%2Fcmunbl-webfont.woff;fontSize=20;" vertex="1" parent="1">
          <mxGeometry x="30" y="240" width="60" height="40" as="geometry" />
        </mxCell>
        <mxCell id="BhSCL6gIzYFrFu6HRPIb-4" value="H&lt;sub&gt;t&lt;/sub&gt;" style="text;html=1;align=center;verticalAlign=middle;resizable=0;points=[];autosize=1;strokeColor=none;fillColor=none;fontFamily=Computer Modern;fontSource=https%3A%2F%2Fgithub.com%2Fspratt%2FComputer-Modern%2Fblob%2F478ef3d4716bea134f9fc5c14f9c976fda120ee5%2Fcmunbl-webfont.woff;fontSize=20;" vertex="1" parent="1">
          <mxGeometry x="735" y="240" width="40" height="40" as="geometry" />
        </mxCell>
      </root>
    </mxGraphModel>
  </diagram>
  <diagram id="7zEIKscQGYLJiRqBXzOC" name="LSTM-layer">
    <mxGraphModel grid="1" page="1" gridSize="10" guides="1" tooltips="1" connect="1" arrows="1" fold="1" pageScale="1" pageWidth="827" pageHeight="1169" math="0" shadow="0">
      <root>
        <mxCell id="0" />
        <mxCell id="1" parent="0" />
        <mxCell id="Cd4_beqUiXxrgL3qUE3v-36" style="edgeStyle=orthogonalEdgeStyle;rounded=0;orthogonalLoop=1;jettySize=auto;html=1;exitX=0.5;exitY=1;exitDx=0;exitDy=0;entryX=0.5;entryY=0;entryDx=0;entryDy=0;fillColor=#f8cecc;strokeColor=#b85450;curved=1;" edge="1" parent="1" source="GyTVw-sA1-0A9W-E1NxS-1" target="GyTVw-sA1-0A9W-E1NxS-4">
          <mxGeometry relative="1" as="geometry">
            <Array as="points">
              <mxPoint x="220" y="110" />
            </Array>
          </mxGeometry>
        </mxCell>
        <mxCell id="Cd4_beqUiXxrgL3qUE3v-37" style="edgeStyle=orthogonalEdgeStyle;rounded=0;orthogonalLoop=1;jettySize=auto;html=1;exitX=0.5;exitY=1;exitDx=0;exitDy=0;entryX=0.5;entryY=0;entryDx=0;entryDy=0;fillColor=#f8cecc;strokeColor=#b85450;curved=1;" edge="1" parent="1" source="GyTVw-sA1-0A9W-E1NxS-1" target="GyTVw-sA1-0A9W-E1NxS-7">
          <mxGeometry relative="1" as="geometry">
            <Array as="points">
              <mxPoint x="300" y="110" />
            </Array>
          </mxGeometry>
        </mxCell>
        <mxCell id="Cd4_beqUiXxrgL3qUE3v-38" style="edgeStyle=orthogonalEdgeStyle;rounded=0;orthogonalLoop=1;jettySize=auto;html=1;exitX=0.5;exitY=1;exitDx=0;exitDy=0;entryX=0.5;entryY=0;entryDx=0;entryDy=0;fillColor=#f8cecc;strokeColor=#b85450;curved=1;" edge="1" parent="1" source="GyTVw-sA1-0A9W-E1NxS-1" target="GyTVw-sA1-0A9W-E1NxS-6">
          <mxGeometry relative="1" as="geometry">
            <Array as="points">
              <mxPoint x="380" y="110" />
            </Array>
          </mxGeometry>
        </mxCell>
        <mxCell id="Cd4_beqUiXxrgL3qUE3v-39" style="edgeStyle=orthogonalEdgeStyle;rounded=0;orthogonalLoop=1;jettySize=auto;html=1;exitX=0.5;exitY=1;exitDx=0;exitDy=0;entryX=0.5;entryY=0;entryDx=0;entryDy=0;fillColor=#f8cecc;strokeColor=#b85450;curved=1;" edge="1" parent="1" source="GyTVw-sA1-0A9W-E1NxS-1" target="GyTVw-sA1-0A9W-E1NxS-8">
          <mxGeometry relative="1" as="geometry">
            <Array as="points">
              <mxPoint x="460" y="110" />
            </Array>
          </mxGeometry>
        </mxCell>
        <mxCell id="Cd4_beqUiXxrgL3qUE3v-40" style="edgeStyle=orthogonalEdgeStyle;rounded=0;orthogonalLoop=1;jettySize=auto;html=1;exitX=0.5;exitY=1;exitDx=0;exitDy=0;entryX=0.5;entryY=0;entryDx=0;entryDy=0;fillColor=#f8cecc;strokeColor=#b85450;curved=1;" edge="1" parent="1" source="GyTVw-sA1-0A9W-E1NxS-1" target="GyTVw-sA1-0A9W-E1NxS-9">
          <mxGeometry relative="1" as="geometry">
            <Array as="points">
              <mxPoint x="540" y="110" />
            </Array>
          </mxGeometry>
        </mxCell>
        <mxCell id="GyTVw-sA1-0A9W-E1NxS-1" value="Input sequence" style="text;html=1;align=center;verticalAlign=middle;whiteSpace=wrap;rounded=0;fontFamily=Computer Modern;fontSource=https%3A%2F%2Fgithub.com%2Fspratt%2FComputer-Modern%2Fblob%2F478ef3d4716bea134f9fc5c14f9c976fda120ee5%2Fcmunbl-webfont.woff;fontSize=20;" vertex="1" parent="1">
          <mxGeometry x="305" y="70" width="150" height="30" as="geometry" />
        </mxCell>
        <mxCell id="GyTVw-sA1-0A9W-E1NxS-12" value="" style="edgeStyle=orthogonalEdgeStyle;rounded=0;orthogonalLoop=1;jettySize=auto;html=1;fontFamily=Computer Modern;fontSource=https%3A%2F%2Fgithub.com%2Fspratt%2FComputer-Modern%2Fblob%2F478ef3d4716bea134f9fc5c14f9c976fda120ee5%2Fcmunbl-webfont.woff;fontSize=20;fillColor=#f8cecc;strokeColor=#b85450;" edge="1" parent="1" source="GyTVw-sA1-0A9W-E1NxS-4" target="GyTVw-sA1-0A9W-E1NxS-7">
          <mxGeometry relative="1" as="geometry" />
        </mxCell>
        <mxCell id="GyTVw-sA1-0A9W-E1NxS-19" style="edgeStyle=orthogonalEdgeStyle;rounded=0;orthogonalLoop=1;jettySize=auto;html=1;exitX=1;exitY=0.5;exitDx=0;exitDy=0;entryX=0.5;entryY=0;entryDx=0;entryDy=0;fontFamily=Computer Modern;fontSource=https%3A%2F%2Fgithub.com%2Fspratt%2FComputer-Modern%2Fblob%2F478ef3d4716bea134f9fc5c14f9c976fda120ee5%2Fcmunbl-webfont.woff;fontSize=20;fillColor=#f8cecc;strokeColor=#b85450;curved=1;" edge="1" parent="1" source="GyTVw-sA1-0A9W-E1NxS-4" target="GyTVw-sA1-0A9W-E1NxS-18">
          <mxGeometry relative="1" as="geometry" />
        </mxCell>
        <mxCell id="GyTVw-sA1-0A9W-E1NxS-4" value="" style="rounded=1;whiteSpace=wrap;html=1;fontFamily=Computer Modern;fontSource=https%3A%2F%2Fgithub.com%2Fspratt%2FComputer-Modern%2Fblob%2F478ef3d4716bea134f9fc5c14f9c976fda120ee5%2Fcmunbl-webfont.woff;fontSize=20;fillColor=#f8cecc;strokeColor=#b85450;" vertex="1" parent="1">
          <mxGeometry x="200" y="160" width="40" height="40" as="geometry" />
        </mxCell>
        <mxCell id="GyTVw-sA1-0A9W-E1NxS-5" value="Hidden&amp;nbsp;&lt;div&gt;state&lt;/div&gt;" style="text;html=1;align=center;verticalAlign=middle;resizable=0;points=[];autosize=1;strokeColor=none;fillColor=none;fontFamily=Computer Modern;fontSource=https%3A%2F%2Fgithub.com%2Fspratt%2FComputer-Modern%2Fblob%2F478ef3d4716bea134f9fc5c14f9c976fda120ee5%2Fcmunbl-webfont.woff;fontSize=20;" vertex="1" parent="1">
          <mxGeometry x="10" y="150" width="90" height="60" as="geometry" />
        </mxCell>
        <mxCell id="GyTVw-sA1-0A9W-E1NxS-14" value="" style="edgeStyle=orthogonalEdgeStyle;rounded=0;orthogonalLoop=1;jettySize=auto;html=1;fontFamily=Computer Modern;fontSource=https%3A%2F%2Fgithub.com%2Fspratt%2FComputer-Modern%2Fblob%2F478ef3d4716bea134f9fc5c14f9c976fda120ee5%2Fcmunbl-webfont.woff;fontSize=20;fillColor=#f8cecc;strokeColor=#b85450;" edge="1" parent="1" source="GyTVw-sA1-0A9W-E1NxS-6" target="GyTVw-sA1-0A9W-E1NxS-8">
          <mxGeometry relative="1" as="geometry" />
        </mxCell>
        <mxCell id="Cd4_beqUiXxrgL3qUE3v-12" style="edgeStyle=orthogonalEdgeStyle;rounded=0;orthogonalLoop=1;jettySize=auto;html=1;exitX=1;exitY=0.5;exitDx=0;exitDy=0;fontFamily=Computer Modern;fontSource=https%3A%2F%2Fgithub.com%2Fspratt%2FComputer-Modern%2Fblob%2F478ef3d4716bea134f9fc5c14f9c976fda120ee5%2Fcmunbl-webfont.woff;fontSize=20;fillColor=#f8cecc;strokeColor=#b85450;curved=1;" edge="1" parent="1" source="GyTVw-sA1-0A9W-E1NxS-6">
          <mxGeometry relative="1" as="geometry">
            <mxPoint x="420" y="240" as="targetPoint" />
          </mxGeometry>
        </mxCell>
        <mxCell id="GyTVw-sA1-0A9W-E1NxS-6" value="" style="rounded=1;whiteSpace=wrap;html=1;fontFamily=Computer Modern;fontSource=https%3A%2F%2Fgithub.com%2Fspratt%2FComputer-Modern%2Fblob%2F478ef3d4716bea134f9fc5c14f9c976fda120ee5%2Fcmunbl-webfont.woff;fontSize=20;fillColor=#f8cecc;strokeColor=#b85450;" vertex="1" parent="1">
          <mxGeometry x="360" y="160" width="40" height="40" as="geometry" />
        </mxCell>
        <mxCell id="GyTVw-sA1-0A9W-E1NxS-13" value="" style="edgeStyle=orthogonalEdgeStyle;rounded=0;orthogonalLoop=1;jettySize=auto;html=1;fontFamily=Computer Modern;fontSource=https%3A%2F%2Fgithub.com%2Fspratt%2FComputer-Modern%2Fblob%2F478ef3d4716bea134f9fc5c14f9c976fda120ee5%2Fcmunbl-webfont.woff;fontSize=20;fillColor=#f8cecc;strokeColor=#b85450;" edge="1" parent="1" source="GyTVw-sA1-0A9W-E1NxS-7" target="GyTVw-sA1-0A9W-E1NxS-6">
          <mxGeometry relative="1" as="geometry" />
        </mxCell>
        <mxCell id="Cd4_beqUiXxrgL3qUE3v-11" style="edgeStyle=orthogonalEdgeStyle;rounded=0;orthogonalLoop=1;jettySize=auto;html=1;exitX=1;exitY=0.5;exitDx=0;exitDy=0;entryX=0.5;entryY=0;entryDx=0;entryDy=0;fontFamily=Computer Modern;fontSource=https%3A%2F%2Fgithub.com%2Fspratt%2FComputer-Modern%2Fblob%2F478ef3d4716bea134f9fc5c14f9c976fda120ee5%2Fcmunbl-webfont.woff;fontSize=20;fillColor=#f8cecc;strokeColor=#b85450;curved=1;" edge="1" parent="1" source="GyTVw-sA1-0A9W-E1NxS-7" target="GyTVw-sA1-0A9W-E1NxS-20">
          <mxGeometry relative="1" as="geometry" />
        </mxCell>
        <mxCell id="GyTVw-sA1-0A9W-E1NxS-7" value="" style="rounded=1;whiteSpace=wrap;html=1;fontFamily=Computer Modern;fontSource=https%3A%2F%2Fgithub.com%2Fspratt%2FComputer-Modern%2Fblob%2F478ef3d4716bea134f9fc5c14f9c976fda120ee5%2Fcmunbl-webfont.woff;fontSize=20;fillColor=#f8cecc;strokeColor=#b85450;" vertex="1" parent="1">
          <mxGeometry x="280" y="160" width="40" height="40" as="geometry" />
        </mxCell>
        <mxCell id="GyTVw-sA1-0A9W-E1NxS-15" value="" style="edgeStyle=orthogonalEdgeStyle;rounded=0;orthogonalLoop=1;jettySize=auto;html=1;fontFamily=Computer Modern;fontSource=https%3A%2F%2Fgithub.com%2Fspratt%2FComputer-Modern%2Fblob%2F478ef3d4716bea134f9fc5c14f9c976fda120ee5%2Fcmunbl-webfont.woff;fontSize=20;fillColor=#f8cecc;strokeColor=#b85450;" edge="1" parent="1" source="GyTVw-sA1-0A9W-E1NxS-8" target="GyTVw-sA1-0A9W-E1NxS-9">
          <mxGeometry relative="1" as="geometry" />
        </mxCell>
        <mxCell id="GyTVw-sA1-0A9W-E1NxS-8" value="" style="rounded=1;whiteSpace=wrap;html=1;fontFamily=Computer Modern;fontSource=https%3A%2F%2Fgithub.com%2Fspratt%2FComputer-Modern%2Fblob%2F478ef3d4716bea134f9fc5c14f9c976fda120ee5%2Fcmunbl-webfont.woff;fontSize=20;fillColor=#f8cecc;strokeColor=#b85450;" vertex="1" parent="1">
          <mxGeometry x="440" y="160" width="40" height="40" as="geometry" />
        </mxCell>
        <mxCell id="GyTVw-sA1-0A9W-E1NxS-23" style="edgeStyle=orthogonalEdgeStyle;rounded=0;orthogonalLoop=1;jettySize=auto;html=1;entryX=0.5;entryY=0;entryDx=0;entryDy=0;exitX=1;exitY=0.5;exitDx=0;exitDy=0;fontFamily=Computer Modern;fontSource=https%3A%2F%2Fgithub.com%2Fspratt%2FComputer-Modern%2Fblob%2F478ef3d4716bea134f9fc5c14f9c976fda120ee5%2Fcmunbl-webfont.woff;fontSize=20;fillColor=#f8cecc;strokeColor=#b85450;curved=1;" edge="1" parent="1" source="GyTVw-sA1-0A9W-E1NxS-9" target="GyTVw-sA1-0A9W-E1NxS-22">
          <mxGeometry relative="1" as="geometry" />
        </mxCell>
        <mxCell id="GyTVw-sA1-0A9W-E1NxS-9" value="" style="rounded=1;whiteSpace=wrap;html=1;fontFamily=Computer Modern;fontSource=https%3A%2F%2Fgithub.com%2Fspratt%2FComputer-Modern%2Fblob%2F478ef3d4716bea134f9fc5c14f9c976fda120ee5%2Fcmunbl-webfont.woff;fontSize=20;fillColor=#f8cecc;strokeColor=#b85450;" vertex="1" parent="1">
          <mxGeometry x="520" y="160" width="40" height="40" as="geometry" />
        </mxCell>
        <mxCell id="GyTVw-sA1-0A9W-E1NxS-18" value="Forget gate" style="rounded=1;whiteSpace=wrap;html=1;fontFamily=Computer Modern;fontSource=https%3A%2F%2Fgithub.com%2Fspratt%2FComputer-Modern%2Fblob%2F478ef3d4716bea134f9fc5c14f9c976fda120ee5%2Fcmunbl-webfont.woff;fontSize=14;fillColor=#d5e8d4;strokeColor=#82b366;" vertex="1" parent="1">
          <mxGeometry x="240" y="238" width="40" height="40" as="geometry" />
        </mxCell>
        <mxCell id="Cd4_beqUiXxrgL3qUE3v-18" style="edgeStyle=orthogonalEdgeStyle;rounded=0;orthogonalLoop=1;jettySize=auto;html=1;exitX=0.5;exitY=1;exitDx=0;exitDy=0;entryX=0;entryY=0.75;entryDx=0;entryDy=0;fontFamily=Computer Modern;fontSource=https%3A%2F%2Fgithub.com%2Fspratt%2FComputer-Modern%2Fblob%2F478ef3d4716bea134f9fc5c14f9c976fda120ee5%2Fcmunbl-webfont.woff;fontSize=20;fillColor=#d5e8d4;strokeColor=#82b366;curved=1;" edge="1" parent="1" source="GyTVw-sA1-0A9W-E1NxS-20" target="Cd4_beqUiXxrgL3qUE3v-17">
          <mxGeometry relative="1" as="geometry" />
        </mxCell>
        <mxCell id="GyTVw-sA1-0A9W-E1NxS-20" value="Input gate" style="rounded=1;whiteSpace=wrap;html=1;fontFamily=Computer Modern;fontSource=https%3A%2F%2Fgithub.com%2Fspratt%2FComputer-Modern%2Fblob%2F478ef3d4716bea134f9fc5c14f9c976fda120ee5%2Fcmunbl-webfont.woff;fontSize=14;fillColor=#d5e8d4;strokeColor=#82b366;" vertex="1" parent="1">
          <mxGeometry x="320" y="238" width="40" height="40" as="geometry" />
        </mxCell>
        <mxCell id="Cd4_beqUiXxrgL3qUE3v-33" style="edgeStyle=orthogonalEdgeStyle;rounded=0;orthogonalLoop=1;jettySize=auto;html=1;exitX=1;exitY=0.5;exitDx=0;exitDy=0;entryX=0;entryY=0.75;entryDx=0;entryDy=0;fontFamily=Computer Modern;fontSource=https%3A%2F%2Fgithub.com%2Fspratt%2FComputer-Modern%2Fblob%2F478ef3d4716bea134f9fc5c14f9c976fda120ee5%2Fcmunbl-webfont.woff;fontSize=20;fillColor=#d5e8d4;strokeColor=#82b366;curved=1;" edge="1" parent="1" source="GyTVw-sA1-0A9W-E1NxS-22" target="Cd4_beqUiXxrgL3qUE3v-25">
          <mxGeometry relative="1" as="geometry" />
        </mxCell>
        <mxCell id="GyTVw-sA1-0A9W-E1NxS-22" value="Output gate" style="rounded=1;whiteSpace=wrap;html=1;fontFamily=Computer Modern;fontSource=https%3A%2F%2Fgithub.com%2Fspratt%2FComputer-Modern%2Fblob%2F478ef3d4716bea134f9fc5c14f9c976fda120ee5%2Fcmunbl-webfont.woff;fontSize=14;fillColor=#d5e8d4;strokeColor=#82b366;" vertex="1" parent="1">
          <mxGeometry x="560" y="238" width="40" height="40" as="geometry" />
        </mxCell>
        <mxCell id="GyTVw-sA1-0A9W-E1NxS-24" value="Memory&amp;nbsp;&lt;div&gt;state&lt;/div&gt;" style="text;html=1;align=center;verticalAlign=middle;resizable=0;points=[];autosize=1;strokeColor=none;fillColor=none;fontFamily=Computer Modern;fontSource=https%3A%2F%2Fgithub.com%2Fspratt%2FComputer-Modern%2Fblob%2F478ef3d4716bea134f9fc5c14f9c976fda120ee5%2Fcmunbl-webfont.woff;fontSize=20;" vertex="1" parent="1">
          <mxGeometry y="340" width="100" height="60" as="geometry" />
        </mxCell>
        <mxCell id="Cd4_beqUiXxrgL3qUE3v-4" value="" style="edgeStyle=orthogonalEdgeStyle;rounded=0;orthogonalLoop=1;jettySize=auto;html=1;entryX=0;entryY=0.5;entryDx=0;entryDy=0;fontFamily=Computer Modern;fontSource=https%3A%2F%2Fgithub.com%2Fspratt%2FComputer-Modern%2Fblob%2F478ef3d4716bea134f9fc5c14f9c976fda120ee5%2Fcmunbl-webfont.woff;fontSize=20;fillColor=#f8cecc;strokeColor=#b85450;curved=1;" edge="1" parent="1" source="Cd4_beqUiXxrgL3qUE3v-1" target="GyTVw-sA1-0A9W-E1NxS-4">
          <mxGeometry relative="1" as="geometry" />
        </mxCell>
        <mxCell id="Cd4_beqUiXxrgL3qUE3v-1" value="H&lt;sub&gt;t-1&lt;/sub&gt;" style="text;html=1;align=center;verticalAlign=middle;resizable=0;points=[];autosize=1;strokeColor=none;fillColor=none;fontFamily=Computer Modern;fontSource=https%3A%2F%2Fgithub.com%2Fspratt%2FComputer-Modern%2Fblob%2F478ef3d4716bea134f9fc5c14f9c976fda120ee5%2Fcmunbl-webfont.woff;fontSize=20;" vertex="1" parent="1">
          <mxGeometry x="110" y="160" width="60" height="40" as="geometry" />
        </mxCell>
        <mxCell id="Cd4_beqUiXxrgL3qUE3v-2" value="H&lt;sub&gt;t&lt;/sub&gt;" style="text;html=1;align=center;verticalAlign=middle;resizable=0;points=[];autosize=1;strokeColor=none;fillColor=none;fontFamily=Computer Modern;fontSource=https%3A%2F%2Fgithub.com%2Fspratt%2FComputer-Modern%2Fblob%2F478ef3d4716bea134f9fc5c14f9c976fda120ee5%2Fcmunbl-webfont.woff;fontSize=20;" vertex="1" parent="1">
          <mxGeometry x="710" y="160" width="40" height="40" as="geometry" />
        </mxCell>
        <mxCell id="Cd4_beqUiXxrgL3qUE3v-23" value="" style="edgeStyle=orthogonalEdgeStyle;rounded=0;orthogonalLoop=1;jettySize=auto;html=1;fontFamily=Computer Modern;fontSource=https%3A%2F%2Fgithub.com%2Fspratt%2FComputer-Modern%2Fblob%2F478ef3d4716bea134f9fc5c14f9c976fda120ee5%2Fcmunbl-webfont.woff;fontSize=20;fillColor=#d5e8d4;strokeColor=#82b366;" edge="1" parent="1" source="Cd4_beqUiXxrgL3qUE3v-6" target="Cd4_beqUiXxrgL3qUE3v-14">
          <mxGeometry relative="1" as="geometry" />
        </mxCell>
        <mxCell id="Cd4_beqUiXxrgL3qUE3v-6" value="M&lt;span&gt;&lt;sub&gt;t-1&lt;/sub&gt;&lt;/span&gt;" style="text;html=1;align=center;verticalAlign=middle;resizable=0;points=[];autosize=1;strokeColor=none;fillColor=none;fontFamily=Computer Modern;fontSource=https%3A%2F%2Fgithub.com%2Fspratt%2FComputer-Modern%2Fblob%2F478ef3d4716bea134f9fc5c14f9c976fda120ee5%2Fcmunbl-webfont.woff;fontSize=20;" vertex="1" parent="1">
          <mxGeometry x="110" y="350" width="60" height="40" as="geometry" />
        </mxCell>
        <mxCell id="Cd4_beqUiXxrgL3qUE3v-7" value="M&lt;sub&gt;t&lt;/sub&gt;" style="text;html=1;align=center;verticalAlign=middle;resizable=0;points=[];autosize=1;strokeColor=none;fillColor=none;fontFamily=Computer Modern;fontSource=https%3A%2F%2Fgithub.com%2Fspratt%2FComputer-Modern%2Fblob%2F478ef3d4716bea134f9fc5c14f9c976fda120ee5%2Fcmunbl-webfont.woff;fontSize=20;" vertex="1" parent="1">
          <mxGeometry x="705" y="350" width="50" height="40" as="geometry" />
        </mxCell>
        <mxCell id="Cd4_beqUiXxrgL3qUE3v-19" style="edgeStyle=orthogonalEdgeStyle;rounded=0;orthogonalLoop=1;jettySize=auto;html=1;exitX=0.5;exitY=1;exitDx=0;exitDy=0;entryX=1;entryY=0.75;entryDx=0;entryDy=0;fontFamily=Computer Modern;fontSource=https%3A%2F%2Fgithub.com%2Fspratt%2FComputer-Modern%2Fblob%2F478ef3d4716bea134f9fc5c14f9c976fda120ee5%2Fcmunbl-webfont.woff;fontSize=20;fillColor=#d5e8d4;strokeColor=#82b366;curved=1;" edge="1" parent="1" source="Cd4_beqUiXxrgL3qUE3v-13" target="Cd4_beqUiXxrgL3qUE3v-17">
          <mxGeometry relative="1" as="geometry" />
        </mxCell>
        <mxCell id="Cd4_beqUiXxrgL3qUE3v-13" value="Tanh" style="whiteSpace=wrap;html=1;fontFamily=Computer Modern;fontSource=https%3A%2F%2Fgithub.com%2Fspratt%2FComputer-Modern%2Fblob%2F478ef3d4716bea134f9fc5c14f9c976fda120ee5%2Fcmunbl-webfont.woff;fontSize=14;fillColor=#d5e8d4;strokeColor=#82b366;" vertex="1" parent="1">
          <mxGeometry x="400" y="238" width="40" height="42" as="geometry" />
        </mxCell>
        <mxCell id="Cd4_beqUiXxrgL3qUE3v-24" value="" style="edgeStyle=orthogonalEdgeStyle;rounded=0;orthogonalLoop=1;jettySize=auto;html=1;fontFamily=Computer Modern;fontSource=https%3A%2F%2Fgithub.com%2Fspratt%2FComputer-Modern%2Fblob%2F478ef3d4716bea134f9fc5c14f9c976fda120ee5%2Fcmunbl-webfont.woff;fontSize=20;fillColor=#d5e8d4;strokeColor=#82b366;" edge="1" parent="1" source="Cd4_beqUiXxrgL3qUE3v-14" target="Cd4_beqUiXxrgL3qUE3v-20">
          <mxGeometry relative="1" as="geometry" />
        </mxCell>
        <mxCell id="Cd4_beqUiXxrgL3qUE3v-14" value="&lt;font&gt;⊙&lt;/font&gt;" style="text;whiteSpace=wrap;html=1;fontFamily=Computer Modern;fontSource=https%3A%2F%2Fgithub.com%2Fspratt%2FComputer-Modern%2Fblob%2F478ef3d4716bea134f9fc5c14f9c976fda120ee5%2Fcmunbl-webfont.woff;fontSize=20;" vertex="1" parent="1">
          <mxGeometry x="210" y="355" width="20" height="30" as="geometry" />
        </mxCell>
        <mxCell id="Cd4_beqUiXxrgL3qUE3v-22" value="" style="edgeStyle=orthogonalEdgeStyle;rounded=0;orthogonalLoop=1;jettySize=auto;html=1;fontFamily=Computer Modern;fontSource=https%3A%2F%2Fgithub.com%2Fspratt%2FComputer-Modern%2Fblob%2F478ef3d4716bea134f9fc5c14f9c976fda120ee5%2Fcmunbl-webfont.woff;fontSize=20;fillColor=#d5e8d4;strokeColor=#82b366;" edge="1" parent="1" source="Cd4_beqUiXxrgL3qUE3v-17" target="Cd4_beqUiXxrgL3qUE3v-20">
          <mxGeometry relative="1" as="geometry" />
        </mxCell>
        <mxCell id="Cd4_beqUiXxrgL3qUE3v-17" value="&lt;font&gt;⊙&lt;/font&gt;" style="text;whiteSpace=wrap;html=1;fontFamily=Computer Modern;fontSource=https%3A%2F%2Fgithub.com%2Fspratt%2FComputer-Modern%2Fblob%2F478ef3d4716bea134f9fc5c14f9c976fda120ee5%2Fcmunbl-webfont.woff;fontSize=20;" vertex="1" parent="1">
          <mxGeometry x="370" y="300" width="20" height="30" as="geometry" />
        </mxCell>
        <mxCell id="Cd4_beqUiXxrgL3qUE3v-30" value="" style="edgeStyle=orthogonalEdgeStyle;rounded=0;orthogonalLoop=1;jettySize=auto;html=1;fontFamily=Computer Modern;fontSource=https%3A%2F%2Fgithub.com%2Fspratt%2FComputer-Modern%2Fblob%2F478ef3d4716bea134f9fc5c14f9c976fda120ee5%2Fcmunbl-webfont.woff;fontSize=20;fillColor=#d5e8d4;strokeColor=#82b366;curved=1;" edge="1" parent="1" source="Cd4_beqUiXxrgL3qUE3v-20" target="Cd4_beqUiXxrgL3qUE3v-28">
          <mxGeometry relative="1" as="geometry" />
        </mxCell>
        <mxCell id="Cd4_beqUiXxrgL3qUE3v-31" style="edgeStyle=orthogonalEdgeStyle;rounded=0;orthogonalLoop=1;jettySize=auto;html=1;exitX=1;exitY=0.5;exitDx=0;exitDy=0;fontFamily=Computer Modern;fontSource=https%3A%2F%2Fgithub.com%2Fspratt%2FComputer-Modern%2Fblob%2F478ef3d4716bea134f9fc5c14f9c976fda120ee5%2Fcmunbl-webfont.woff;fontSize=20;fillColor=#d5e8d4;strokeColor=#82b366;" edge="1" parent="1" source="Cd4_beqUiXxrgL3qUE3v-20" target="Cd4_beqUiXxrgL3qUE3v-7">
          <mxGeometry relative="1" as="geometry" />
        </mxCell>
        <mxCell id="Cd4_beqUiXxrgL3qUE3v-20" value="&lt;font&gt;+&lt;/font&gt;" style="ellipse;whiteSpace=wrap;html=1;fontFamily=Computer Modern;fontSource=https%3A%2F%2Fgithub.com%2Fspratt%2FComputer-Modern%2Fblob%2F478ef3d4716bea134f9fc5c14f9c976fda120ee5%2Fcmunbl-webfont.woff;fontSize=20;fillColor=#d5e8d4;strokeColor=#82b366;" vertex="1" parent="1">
          <mxGeometry x="365" y="355" width="30" height="30" as="geometry" />
        </mxCell>
        <mxCell id="Cd4_beqUiXxrgL3qUE3v-25" value="&lt;font&gt;⊙&lt;/font&gt;" style="text;whiteSpace=wrap;html=1;fontFamily=Computer Modern;fontSource=https%3A%2F%2Fgithub.com%2Fspratt%2FComputer-Modern%2Fblob%2F478ef3d4716bea134f9fc5c14f9c976fda120ee5%2Fcmunbl-webfont.woff;fontSize=20;" vertex="1" parent="1">
          <mxGeometry x="640" y="220" width="20" height="30" as="geometry" />
        </mxCell>
        <mxCell id="Cd4_beqUiXxrgL3qUE3v-34" style="edgeStyle=orthogonalEdgeStyle;rounded=0;orthogonalLoop=1;jettySize=auto;html=1;exitX=1;exitY=0.5;exitDx=0;exitDy=0;entryX=0.5;entryY=1;entryDx=0;entryDy=0;fontFamily=Computer Modern;fontSource=https%3A%2F%2Fgithub.com%2Fspratt%2FComputer-Modern%2Fblob%2F478ef3d4716bea134f9fc5c14f9c976fda120ee5%2Fcmunbl-webfont.woff;fontSize=20;fillColor=#d5e8d4;strokeColor=#82b366;curved=1;" edge="1" parent="1" source="Cd4_beqUiXxrgL3qUE3v-28" target="Cd4_beqUiXxrgL3qUE3v-25">
          <mxGeometry relative="1" as="geometry" />
        </mxCell>
        <mxCell id="Cd4_beqUiXxrgL3qUE3v-28" value="Tanh" style="whiteSpace=wrap;html=1;fontFamily=Computer Modern;fontSource=https%3A%2F%2Fgithub.com%2Fspratt%2FComputer-Modern%2Fblob%2F478ef3d4716bea134f9fc5c14f9c976fda120ee5%2Fcmunbl-webfont.woff;fontSize=14;fillColor=#d5e8d4;strokeColor=#82b366;" vertex="1" parent="1">
          <mxGeometry x="560" y="313" width="40" height="42" as="geometry" />
        </mxCell>
        <mxCell id="Cd4_beqUiXxrgL3qUE3v-35" style="edgeStyle=orthogonalEdgeStyle;rounded=0;orthogonalLoop=1;jettySize=auto;html=1;exitX=0.5;exitY=0;exitDx=0;exitDy=0;entryX=-0.025;entryY=0.45;entryDx=0;entryDy=0;entryPerimeter=0;fontFamily=Computer Modern;fontSource=https%3A%2F%2Fgithub.com%2Fspratt%2FComputer-Modern%2Fblob%2F478ef3d4716bea134f9fc5c14f9c976fda120ee5%2Fcmunbl-webfont.woff;fontSize=20;fillColor=#d5e8d4;strokeColor=#82b366;" edge="1" parent="1" source="Cd4_beqUiXxrgL3qUE3v-25" target="Cd4_beqUiXxrgL3qUE3v-2">
          <mxGeometry relative="1" as="geometry" />
        </mxCell>
      </root>
    </mxGraphModel>
  </diagram>
  <diagram id="AcHxlKpsfgREaEcDUPY0" name="Dense">
    <mxGraphModel grid="1" page="1" gridSize="10" guides="1" tooltips="1" connect="1" arrows="1" fold="1" pageScale="1" pageWidth="827" pageHeight="1169" math="0" shadow="0">
      <root>
        <mxCell id="0" />
        <mxCell id="1" parent="0" />
        <mxCell id="iyQ6s5K5xaynS0PIafc0-67" style="edgeStyle=orthogonalEdgeStyle;rounded=0;orthogonalLoop=1;jettySize=auto;html=1;exitX=0.5;exitY=1;exitDx=0;exitDy=0;entryX=0.5;entryY=0;entryDx=0;entryDy=0;fillColor=#dae8fc;strokeColor=#6c8ebf;" edge="1" parent="1" source="iyQ6s5K5xaynS0PIafc0-1" target="iyQ6s5K5xaynS0PIafc0-23">
          <mxGeometry relative="1" as="geometry" />
        </mxCell>
        <mxCell id="iyQ6s5K5xaynS0PIafc0-69" style="edgeStyle=orthogonalEdgeStyle;rounded=0;orthogonalLoop=1;jettySize=auto;html=1;exitX=0.5;exitY=1;exitDx=0;exitDy=0;entryX=0.5;entryY=0;entryDx=0;entryDy=0;fillColor=#dae8fc;strokeColor=#6c8ebf;" edge="1" parent="1" source="iyQ6s5K5xaynS0PIafc0-1" target="iyQ6s5K5xaynS0PIafc0-24">
          <mxGeometry relative="1" as="geometry" />
        </mxCell>
        <mxCell id="iyQ6s5K5xaynS0PIafc0-70" style="edgeStyle=orthogonalEdgeStyle;rounded=0;orthogonalLoop=1;jettySize=auto;html=1;exitX=0.5;exitY=1;exitDx=0;exitDy=0;entryX=0.5;entryY=0;entryDx=0;entryDy=0;fillColor=#dae8fc;strokeColor=#6c8ebf;" edge="1" parent="1" source="iyQ6s5K5xaynS0PIafc0-1" target="iyQ6s5K5xaynS0PIafc0-25">
          <mxGeometry relative="1" as="geometry" />
        </mxCell>
        <mxCell id="iyQ6s5K5xaynS0PIafc0-71" style="edgeStyle=orthogonalEdgeStyle;rounded=0;orthogonalLoop=1;jettySize=auto;html=1;exitX=0.5;exitY=1;exitDx=0;exitDy=0;entryX=0.5;entryY=0;entryDx=0;entryDy=0;fillColor=#dae8fc;strokeColor=#6c8ebf;" edge="1" parent="1" source="iyQ6s5K5xaynS0PIafc0-1" target="iyQ6s5K5xaynS0PIafc0-26">
          <mxGeometry relative="1" as="geometry" />
        </mxCell>
        <mxCell id="iyQ6s5K5xaynS0PIafc0-72" style="edgeStyle=orthogonalEdgeStyle;rounded=0;orthogonalLoop=1;jettySize=auto;html=1;exitX=0.5;exitY=1;exitDx=0;exitDy=0;entryX=0.5;entryY=0;entryDx=0;entryDy=0;fillColor=#dae8fc;strokeColor=#6c8ebf;" edge="1" parent="1" source="iyQ6s5K5xaynS0PIafc0-1" target="iyQ6s5K5xaynS0PIafc0-27">
          <mxGeometry relative="1" as="geometry" />
        </mxCell>
        <mxCell id="iyQ6s5K5xaynS0PIafc0-73" style="edgeStyle=orthogonalEdgeStyle;rounded=0;orthogonalLoop=1;jettySize=auto;html=1;exitX=0.5;exitY=1;exitDx=0;exitDy=0;entryX=0.5;entryY=0;entryDx=0;entryDy=0;fillColor=#dae8fc;strokeColor=#6c8ebf;" edge="1" parent="1" source="iyQ6s5K5xaynS0PIafc0-1" target="iyQ6s5K5xaynS0PIafc0-28">
          <mxGeometry relative="1" as="geometry" />
        </mxCell>
        <mxCell id="iyQ6s5K5xaynS0PIafc0-74" style="edgeStyle=orthogonalEdgeStyle;rounded=0;orthogonalLoop=1;jettySize=auto;html=1;exitX=0.5;exitY=1;exitDx=0;exitDy=0;entryX=0.5;entryY=0;entryDx=0;entryDy=0;fillColor=#dae8fc;strokeColor=#6c8ebf;" edge="1" parent="1" source="iyQ6s5K5xaynS0PIafc0-1" target="iyQ6s5K5xaynS0PIafc0-34">
          <mxGeometry relative="1" as="geometry" />
        </mxCell>
        <mxCell id="iyQ6s5K5xaynS0PIafc0-75" style="edgeStyle=orthogonalEdgeStyle;rounded=0;orthogonalLoop=1;jettySize=auto;html=1;exitX=0.5;exitY=1;exitDx=0;exitDy=0;entryX=0.5;entryY=0;entryDx=0;entryDy=0;fillColor=#dae8fc;strokeColor=#6c8ebf;" edge="1" parent="1" source="iyQ6s5K5xaynS0PIafc0-1" target="iyQ6s5K5xaynS0PIafc0-35">
          <mxGeometry relative="1" as="geometry" />
        </mxCell>
        <mxCell id="iyQ6s5K5xaynS0PIafc0-76" style="edgeStyle=orthogonalEdgeStyle;rounded=0;orthogonalLoop=1;jettySize=auto;html=1;exitX=0.5;exitY=1;exitDx=0;exitDy=0;entryX=0.5;entryY=0;entryDx=0;entryDy=0;fillColor=#dae8fc;strokeColor=#6c8ebf;" edge="1" parent="1" source="iyQ6s5K5xaynS0PIafc0-1" target="iyQ6s5K5xaynS0PIafc0-36">
          <mxGeometry relative="1" as="geometry" />
        </mxCell>
        <mxCell id="iyQ6s5K5xaynS0PIafc0-77" style="edgeStyle=orthogonalEdgeStyle;rounded=0;orthogonalLoop=1;jettySize=auto;html=1;exitX=0.5;exitY=1;exitDx=0;exitDy=0;entryX=0.5;entryY=0;entryDx=0;entryDy=0;fillColor=#dae8fc;strokeColor=#6c8ebf;" edge="1" parent="1" source="iyQ6s5K5xaynS0PIafc0-1" target="iyQ6s5K5xaynS0PIafc0-37">
          <mxGeometry relative="1" as="geometry" />
        </mxCell>
        <mxCell id="iyQ6s5K5xaynS0PIafc0-1" value="" style="rounded=1;whiteSpace=wrap;html=1;fontFamily=Computer Modern;fontSource=https%3A%2F%2Fgithub.com%2Fspratt%2FComputer-Modern%2Fblob%2F478ef3d4716bea134f9fc5c14f9c976fda120ee5%2Fcmunbl-webfont.woff;fontSize=20;fillColor=#dae8fc;strokeColor=#6c8ebf;" vertex="1" parent="1">
          <mxGeometry x="180" y="80" width="40" height="40" as="geometry" />
        </mxCell>
        <mxCell id="iyQ6s5K5xaynS0PIafc0-78" style="edgeStyle=orthogonalEdgeStyle;rounded=0;orthogonalLoop=1;jettySize=auto;html=1;exitX=0.5;exitY=1;exitDx=0;exitDy=0;entryX=0.5;entryY=0;entryDx=0;entryDy=0;fillColor=#dae8fc;strokeColor=#6c8ebf;" edge="1" parent="1" source="iyQ6s5K5xaynS0PIafc0-2" target="iyQ6s5K5xaynS0PIafc0-23">
          <mxGeometry relative="1" as="geometry" />
        </mxCell>
        <mxCell id="iyQ6s5K5xaynS0PIafc0-79" style="edgeStyle=orthogonalEdgeStyle;rounded=0;orthogonalLoop=1;jettySize=auto;html=1;exitX=0.5;exitY=1;exitDx=0;exitDy=0;entryX=0.5;entryY=0;entryDx=0;entryDy=0;fillColor=#dae8fc;strokeColor=#6c8ebf;" edge="1" parent="1" source="iyQ6s5K5xaynS0PIafc0-2" target="iyQ6s5K5xaynS0PIafc0-24">
          <mxGeometry relative="1" as="geometry" />
        </mxCell>
        <mxCell id="iyQ6s5K5xaynS0PIafc0-80" style="edgeStyle=orthogonalEdgeStyle;rounded=0;orthogonalLoop=1;jettySize=auto;html=1;exitX=0.5;exitY=1;exitDx=0;exitDy=0;entryX=0.5;entryY=0;entryDx=0;entryDy=0;fillColor=#dae8fc;strokeColor=#6c8ebf;" edge="1" parent="1" source="iyQ6s5K5xaynS0PIafc0-2" target="iyQ6s5K5xaynS0PIafc0-25">
          <mxGeometry relative="1" as="geometry" />
        </mxCell>
        <mxCell id="iyQ6s5K5xaynS0PIafc0-2" value="" style="rounded=1;whiteSpace=wrap;html=1;fontFamily=Computer Modern;fontSource=https%3A%2F%2Fgithub.com%2Fspratt%2FComputer-Modern%2Fblob%2F478ef3d4716bea134f9fc5c14f9c976fda120ee5%2Fcmunbl-webfont.woff;fontSize=20;fillColor=#dae8fc;strokeColor=#6c8ebf;" vertex="1" parent="1">
          <mxGeometry x="230" y="80" width="40" height="40" as="geometry" />
        </mxCell>
        <mxCell id="iyQ6s5K5xaynS0PIafc0-81" style="edgeStyle=orthogonalEdgeStyle;rounded=0;orthogonalLoop=1;jettySize=auto;html=1;exitX=0.5;exitY=1;exitDx=0;exitDy=0;fillColor=#dae8fc;strokeColor=#6c8ebf;" edge="1" parent="1" source="iyQ6s5K5xaynS0PIafc0-3">
          <mxGeometry relative="1" as="geometry">
            <mxPoint x="370" y="200" as="targetPoint" />
          </mxGeometry>
        </mxCell>
        <mxCell id="iyQ6s5K5xaynS0PIafc0-3" value="" style="rounded=1;whiteSpace=wrap;html=1;fontFamily=Computer Modern;fontSource=https%3A%2F%2Fgithub.com%2Fspratt%2FComputer-Modern%2Fblob%2F478ef3d4716bea134f9fc5c14f9c976fda120ee5%2Fcmunbl-webfont.woff;fontSize=20;fillColor=#dae8fc;strokeColor=#6c8ebf;" vertex="1" parent="1">
          <mxGeometry x="280" y="80" width="40" height="40" as="geometry" />
        </mxCell>
        <mxCell id="iyQ6s5K5xaynS0PIafc0-82" style="edgeStyle=orthogonalEdgeStyle;rounded=0;orthogonalLoop=1;jettySize=auto;html=1;exitX=0.5;exitY=1;exitDx=0;exitDy=0;entryX=0.5;entryY=0;entryDx=0;entryDy=0;fillColor=#dae8fc;strokeColor=#6c8ebf;" edge="1" parent="1" source="iyQ6s5K5xaynS0PIafc0-4" target="iyQ6s5K5xaynS0PIafc0-27">
          <mxGeometry relative="1" as="geometry" />
        </mxCell>
        <mxCell id="iyQ6s5K5xaynS0PIafc0-4" value="" style="rounded=1;whiteSpace=wrap;html=1;fontFamily=Computer Modern;fontSource=https%3A%2F%2Fgithub.com%2Fspratt%2FComputer-Modern%2Fblob%2F478ef3d4716bea134f9fc5c14f9c976fda120ee5%2Fcmunbl-webfont.woff;fontSize=20;fillColor=#dae8fc;strokeColor=#6c8ebf;" vertex="1" parent="1">
          <mxGeometry x="330" y="80" width="40" height="40" as="geometry" />
        </mxCell>
        <mxCell id="iyQ6s5K5xaynS0PIafc0-83" style="edgeStyle=orthogonalEdgeStyle;rounded=0;orthogonalLoop=1;jettySize=auto;html=1;exitX=0.5;exitY=1;exitDx=0;exitDy=0;entryX=0.5;entryY=0;entryDx=0;entryDy=0;fillColor=#dae8fc;strokeColor=#6c8ebf;" edge="1" parent="1" source="iyQ6s5K5xaynS0PIafc0-5" target="iyQ6s5K5xaynS0PIafc0-28">
          <mxGeometry relative="1" as="geometry" />
        </mxCell>
        <mxCell id="iyQ6s5K5xaynS0PIafc0-5" value="" style="rounded=1;whiteSpace=wrap;html=1;fontFamily=Computer Modern;fontSource=https%3A%2F%2Fgithub.com%2Fspratt%2FComputer-Modern%2Fblob%2F478ef3d4716bea134f9fc5c14f9c976fda120ee5%2Fcmunbl-webfont.woff;fontSize=20;fillColor=#dae8fc;strokeColor=#6c8ebf;" vertex="1" parent="1">
          <mxGeometry x="380" y="80" width="40" height="40" as="geometry" />
        </mxCell>
        <mxCell id="iyQ6s5K5xaynS0PIafc0-84" style="edgeStyle=orthogonalEdgeStyle;rounded=0;orthogonalLoop=1;jettySize=auto;html=1;exitX=0.5;exitY=1;exitDx=0;exitDy=0;entryX=0.5;entryY=0;entryDx=0;entryDy=0;fillColor=#dae8fc;strokeColor=#6c8ebf;" edge="1" parent="1" source="iyQ6s5K5xaynS0PIafc0-6" target="iyQ6s5K5xaynS0PIafc0-34">
          <mxGeometry relative="1" as="geometry" />
        </mxCell>
        <mxCell id="iyQ6s5K5xaynS0PIafc0-6" value="" style="rounded=1;whiteSpace=wrap;html=1;fontFamily=Computer Modern;fontSource=https%3A%2F%2Fgithub.com%2Fspratt%2FComputer-Modern%2Fblob%2F478ef3d4716bea134f9fc5c14f9c976fda120ee5%2Fcmunbl-webfont.woff;fontSize=20;fillColor=#dae8fc;strokeColor=#6c8ebf;" vertex="1" parent="1">
          <mxGeometry x="430" y="80" width="40" height="40" as="geometry" />
        </mxCell>
        <mxCell id="iyQ6s5K5xaynS0PIafc0-85" style="edgeStyle=orthogonalEdgeStyle;rounded=0;orthogonalLoop=1;jettySize=auto;html=1;exitX=0.5;exitY=1;exitDx=0;exitDy=0;entryX=0.5;entryY=0;entryDx=0;entryDy=0;fillColor=#dae8fc;strokeColor=#6c8ebf;" edge="1" parent="1" source="iyQ6s5K5xaynS0PIafc0-7" target="iyQ6s5K5xaynS0PIafc0-35">
          <mxGeometry relative="1" as="geometry" />
        </mxCell>
        <mxCell id="iyQ6s5K5xaynS0PIafc0-7" value="" style="rounded=1;whiteSpace=wrap;html=1;fontFamily=Computer Modern;fontSource=https%3A%2F%2Fgithub.com%2Fspratt%2FComputer-Modern%2Fblob%2F478ef3d4716bea134f9fc5c14f9c976fda120ee5%2Fcmunbl-webfont.woff;fontSize=20;fillColor=#dae8fc;strokeColor=#6c8ebf;" vertex="1" parent="1">
          <mxGeometry x="480" y="80" width="40" height="40" as="geometry" />
        </mxCell>
        <mxCell id="iyQ6s5K5xaynS0PIafc0-86" style="edgeStyle=orthogonalEdgeStyle;rounded=0;orthogonalLoop=1;jettySize=auto;html=1;exitX=0.5;exitY=1;exitDx=0;exitDy=0;fillColor=#dae8fc;strokeColor=#6c8ebf;" edge="1" parent="1" source="iyQ6s5K5xaynS0PIafc0-8">
          <mxGeometry relative="1" as="geometry">
            <mxPoint x="620" y="200" as="targetPoint" />
          </mxGeometry>
        </mxCell>
        <mxCell id="iyQ6s5K5xaynS0PIafc0-8" value="" style="rounded=1;whiteSpace=wrap;html=1;fontFamily=Computer Modern;fontSource=https%3A%2F%2Fgithub.com%2Fspratt%2FComputer-Modern%2Fblob%2F478ef3d4716bea134f9fc5c14f9c976fda120ee5%2Fcmunbl-webfont.woff;fontSize=20;fillColor=#dae8fc;strokeColor=#6c8ebf;" vertex="1" parent="1">
          <mxGeometry x="530" y="80" width="40" height="40" as="geometry" />
        </mxCell>
        <mxCell id="iyQ6s5K5xaynS0PIafc0-87" style="edgeStyle=orthogonalEdgeStyle;rounded=0;orthogonalLoop=1;jettySize=auto;html=1;exitX=0.5;exitY=1;exitDx=0;exitDy=0;entryX=0.5;entryY=0;entryDx=0;entryDy=0;fillColor=#dae8fc;strokeColor=#6c8ebf;" edge="1" parent="1" source="iyQ6s5K5xaynS0PIafc0-9" target="iyQ6s5K5xaynS0PIafc0-37">
          <mxGeometry relative="1" as="geometry" />
        </mxCell>
        <mxCell id="iyQ6s5K5xaynS0PIafc0-9" value="" style="rounded=1;whiteSpace=wrap;html=1;fontFamily=Computer Modern;fontSource=https%3A%2F%2Fgithub.com%2Fspratt%2FComputer-Modern%2Fblob%2F478ef3d4716bea134f9fc5c14f9c976fda120ee5%2Fcmunbl-webfont.woff;fontSize=20;fillColor=#dae8fc;strokeColor=#6c8ebf;" vertex="1" parent="1">
          <mxGeometry x="580" y="80" width="40" height="40" as="geometry" />
        </mxCell>
        <mxCell id="iyQ6s5K5xaynS0PIafc0-88" style="edgeStyle=orthogonalEdgeStyle;rounded=0;orthogonalLoop=1;jettySize=auto;html=1;exitX=0.5;exitY=1;exitDx=0;exitDy=0;entryX=0.5;entryY=0;entryDx=0;entryDy=0;fillColor=#dae8fc;strokeColor=#6c8ebf;" edge="1" parent="1" source="iyQ6s5K5xaynS0PIafc0-10" target="iyQ6s5K5xaynS0PIafc0-36">
          <mxGeometry relative="1" as="geometry" />
        </mxCell>
        <mxCell id="iyQ6s5K5xaynS0PIafc0-10" value="" style="rounded=1;whiteSpace=wrap;html=1;fontFamily=Computer Modern;fontSource=https%3A%2F%2Fgithub.com%2Fspratt%2FComputer-Modern%2Fblob%2F478ef3d4716bea134f9fc5c14f9c976fda120ee5%2Fcmunbl-webfont.woff;fontSize=20;fillColor=#dae8fc;strokeColor=#6c8ebf;" vertex="1" parent="1">
          <mxGeometry x="630" y="80" width="40" height="40" as="geometry" />
        </mxCell>
        <mxCell id="iyQ6s5K5xaynS0PIafc0-89" style="edgeStyle=orthogonalEdgeStyle;rounded=0;orthogonalLoop=1;jettySize=auto;html=1;exitX=0.75;exitY=1;exitDx=0;exitDy=0;entryX=0.5;entryY=0;entryDx=0;entryDy=0;fillColor=#dae8fc;strokeColor=#6c8ebf;" edge="1" parent="1" source="iyQ6s5K5xaynS0PIafc0-11" target="iyQ6s5K5xaynS0PIafc0-37">
          <mxGeometry relative="1" as="geometry" />
        </mxCell>
        <mxCell id="iyQ6s5K5xaynS0PIafc0-11" value="" style="rounded=1;whiteSpace=wrap;html=1;fontFamily=Computer Modern;fontSource=https%3A%2F%2Fgithub.com%2Fspratt%2FComputer-Modern%2Fblob%2F478ef3d4716bea134f9fc5c14f9c976fda120ee5%2Fcmunbl-webfont.woff;fontSize=20;fillColor=#dae8fc;strokeColor=#6c8ebf;" vertex="1" parent="1">
          <mxGeometry x="680" y="80" width="40" height="40" as="geometry" />
        </mxCell>
        <mxCell id="iyQ6s5K5xaynS0PIafc0-90" style="edgeStyle=orthogonalEdgeStyle;rounded=0;orthogonalLoop=1;jettySize=auto;html=1;exitX=0.5;exitY=1;exitDx=0;exitDy=0;fillColor=#dae8fc;strokeColor=#6c8ebf;" edge="1" parent="1" source="iyQ6s5K5xaynS0PIafc0-23" target="iyQ6s5K5xaynS0PIafc0-45">
          <mxGeometry relative="1" as="geometry" />
        </mxCell>
        <mxCell id="iyQ6s5K5xaynS0PIafc0-23" value="" style="rounded=1;whiteSpace=wrap;html=1;fontFamily=Computer Modern;fontSource=https%3A%2F%2Fgithub.com%2Fspratt%2FComputer-Modern%2Fblob%2F478ef3d4716bea134f9fc5c14f9c976fda120ee5%2Fcmunbl-webfont.woff;fontSize=20;fillColor=#dae8fc;strokeColor=#6c8ebf;" vertex="1" parent="1">
          <mxGeometry x="200" y="200" width="40" height="40" as="geometry" />
        </mxCell>
        <mxCell id="iyQ6s5K5xaynS0PIafc0-91" style="edgeStyle=orthogonalEdgeStyle;rounded=0;orthogonalLoop=1;jettySize=auto;html=1;exitX=0.5;exitY=1;exitDx=0;exitDy=0;entryX=0.5;entryY=0;entryDx=0;entryDy=0;fillColor=#dae8fc;strokeColor=#6c8ebf;" edge="1" parent="1" source="iyQ6s5K5xaynS0PIafc0-24" target="iyQ6s5K5xaynS0PIafc0-45">
          <mxGeometry relative="1" as="geometry" />
        </mxCell>
        <mxCell id="iyQ6s5K5xaynS0PIafc0-24" value="" style="rounded=1;whiteSpace=wrap;html=1;fontFamily=Computer Modern;fontSource=https%3A%2F%2Fgithub.com%2Fspratt%2FComputer-Modern%2Fblob%2F478ef3d4716bea134f9fc5c14f9c976fda120ee5%2Fcmunbl-webfont.woff;fontSize=20;fillColor=#dae8fc;strokeColor=#6c8ebf;" vertex="1" parent="1">
          <mxGeometry x="250" y="200" width="40" height="40" as="geometry" />
        </mxCell>
        <mxCell id="iyQ6s5K5xaynS0PIafc0-92" style="edgeStyle=orthogonalEdgeStyle;rounded=0;orthogonalLoop=1;jettySize=auto;html=1;exitX=0.5;exitY=1;exitDx=0;exitDy=0;entryX=0.5;entryY=0;entryDx=0;entryDy=0;fillColor=#dae8fc;strokeColor=#6c8ebf;" edge="1" parent="1" source="iyQ6s5K5xaynS0PIafc0-25" target="iyQ6s5K5xaynS0PIafc0-45">
          <mxGeometry relative="1" as="geometry" />
        </mxCell>
        <mxCell id="iyQ6s5K5xaynS0PIafc0-93" style="edgeStyle=orthogonalEdgeStyle;rounded=0;orthogonalLoop=1;jettySize=auto;html=1;exitX=0.5;exitY=1;exitDx=0;exitDy=0;entryX=0.5;entryY=0;entryDx=0;entryDy=0;fillColor=#dae8fc;strokeColor=#6c8ebf;" edge="1" parent="1" source="iyQ6s5K5xaynS0PIafc0-25" target="iyQ6s5K5xaynS0PIafc0-47">
          <mxGeometry relative="1" as="geometry" />
        </mxCell>
        <mxCell id="iyQ6s5K5xaynS0PIafc0-25" value="" style="rounded=1;whiteSpace=wrap;html=1;fontFamily=Computer Modern;fontSource=https%3A%2F%2Fgithub.com%2Fspratt%2FComputer-Modern%2Fblob%2F478ef3d4716bea134f9fc5c14f9c976fda120ee5%2Fcmunbl-webfont.woff;fontSize=20;fillColor=#dae8fc;strokeColor=#6c8ebf;" vertex="1" parent="1">
          <mxGeometry x="300" y="200" width="40" height="40" as="geometry" />
        </mxCell>
        <mxCell id="iyQ6s5K5xaynS0PIafc0-94" style="edgeStyle=orthogonalEdgeStyle;rounded=0;orthogonalLoop=1;jettySize=auto;html=1;exitX=0.5;exitY=1;exitDx=0;exitDy=0;entryX=0.5;entryY=0;entryDx=0;entryDy=0;fillColor=#dae8fc;strokeColor=#6c8ebf;" edge="1" parent="1" source="iyQ6s5K5xaynS0PIafc0-26" target="iyQ6s5K5xaynS0PIafc0-47">
          <mxGeometry relative="1" as="geometry" />
        </mxCell>
        <mxCell id="iyQ6s5K5xaynS0PIafc0-26" value="" style="rounded=1;whiteSpace=wrap;html=1;fontFamily=Computer Modern;fontSource=https%3A%2F%2Fgithub.com%2Fspratt%2FComputer-Modern%2Fblob%2F478ef3d4716bea134f9fc5c14f9c976fda120ee5%2Fcmunbl-webfont.woff;fontSize=20;fillColor=#dae8fc;strokeColor=#6c8ebf;" vertex="1" parent="1">
          <mxGeometry x="350" y="200" width="40" height="40" as="geometry" />
        </mxCell>
        <mxCell id="iyQ6s5K5xaynS0PIafc0-95" style="edgeStyle=orthogonalEdgeStyle;rounded=0;orthogonalLoop=1;jettySize=auto;html=1;exitX=0.5;exitY=1;exitDx=0;exitDy=0;fillColor=#dae8fc;strokeColor=#6c8ebf;" edge="1" parent="1" source="iyQ6s5K5xaynS0PIafc0-27" target="iyQ6s5K5xaynS0PIafc0-49">
          <mxGeometry relative="1" as="geometry" />
        </mxCell>
        <mxCell id="iyQ6s5K5xaynS0PIafc0-27" value="" style="rounded=1;whiteSpace=wrap;html=1;fontFamily=Computer Modern;fontSource=https%3A%2F%2Fgithub.com%2Fspratt%2FComputer-Modern%2Fblob%2F478ef3d4716bea134f9fc5c14f9c976fda120ee5%2Fcmunbl-webfont.woff;fontSize=20;fillColor=#dae8fc;strokeColor=#6c8ebf;" vertex="1" parent="1">
          <mxGeometry x="400" y="200" width="40" height="40" as="geometry" />
        </mxCell>
        <mxCell id="iyQ6s5K5xaynS0PIafc0-96" style="edgeStyle=orthogonalEdgeStyle;rounded=0;orthogonalLoop=1;jettySize=auto;html=1;exitX=0.5;exitY=1;exitDx=0;exitDy=0;entryX=0.5;entryY=0;entryDx=0;entryDy=0;fillColor=#dae8fc;strokeColor=#6c8ebf;" edge="1" parent="1" source="iyQ6s5K5xaynS0PIafc0-28" target="iyQ6s5K5xaynS0PIafc0-49">
          <mxGeometry relative="1" as="geometry" />
        </mxCell>
        <mxCell id="iyQ6s5K5xaynS0PIafc0-28" value="" style="rounded=1;whiteSpace=wrap;html=1;fontFamily=Computer Modern;fontSource=https%3A%2F%2Fgithub.com%2Fspratt%2FComputer-Modern%2Fblob%2F478ef3d4716bea134f9fc5c14f9c976fda120ee5%2Fcmunbl-webfont.woff;fontSize=20;fillColor=#dae8fc;strokeColor=#6c8ebf;" vertex="1" parent="1">
          <mxGeometry x="450" y="200" width="40" height="40" as="geometry" />
        </mxCell>
        <mxCell id="iyQ6s5K5xaynS0PIafc0-29" value="" style="rounded=1;whiteSpace=wrap;html=1;fontFamily=Computer Modern;fontSource=https%3A%2F%2Fgithub.com%2Fspratt%2FComputer-Modern%2Fblob%2F478ef3d4716bea134f9fc5c14f9c976fda120ee5%2Fcmunbl-webfont.woff;fontSize=20;fillColor=#dae8fc;strokeColor=#6c8ebf;" vertex="1" parent="1">
          <mxGeometry x="500" y="200" width="40" height="40" as="geometry" />
        </mxCell>
        <mxCell id="iyQ6s5K5xaynS0PIafc0-30" value="" style="rounded=1;whiteSpace=wrap;html=1;fontFamily=Computer Modern;fontSource=https%3A%2F%2Fgithub.com%2Fspratt%2FComputer-Modern%2Fblob%2F478ef3d4716bea134f9fc5c14f9c976fda120ee5%2Fcmunbl-webfont.woff;fontSize=20;fillColor=#dae8fc;strokeColor=#6c8ebf;" vertex="1" parent="1">
          <mxGeometry x="550" y="200" width="40" height="40" as="geometry" />
        </mxCell>
        <mxCell id="iyQ6s5K5xaynS0PIafc0-31" value="" style="rounded=1;whiteSpace=wrap;html=1;fontFamily=Computer Modern;fontSource=https%3A%2F%2Fgithub.com%2Fspratt%2FComputer-Modern%2Fblob%2F478ef3d4716bea134f9fc5c14f9c976fda120ee5%2Fcmunbl-webfont.woff;fontSize=20;fillColor=#dae8fc;strokeColor=#6c8ebf;" vertex="1" parent="1">
          <mxGeometry x="600" y="200" width="40" height="40" as="geometry" />
        </mxCell>
        <mxCell id="iyQ6s5K5xaynS0PIafc0-32" value="" style="rounded=1;whiteSpace=wrap;html=1;fontFamily=Computer Modern;fontSource=https%3A%2F%2Fgithub.com%2Fspratt%2FComputer-Modern%2Fblob%2F478ef3d4716bea134f9fc5c14f9c976fda120ee5%2Fcmunbl-webfont.woff;fontSize=20;fillColor=#dae8fc;strokeColor=#6c8ebf;" vertex="1" parent="1">
          <mxGeometry x="650" y="200" width="40" height="40" as="geometry" />
        </mxCell>
        <mxCell id="iyQ6s5K5xaynS0PIafc0-97" style="edgeStyle=orthogonalEdgeStyle;rounded=0;orthogonalLoop=1;jettySize=auto;html=1;exitX=0.5;exitY=1;exitDx=0;exitDy=0;entryX=0.5;entryY=0;entryDx=0;entryDy=0;fillColor=#dae8fc;strokeColor=#6c8ebf;" edge="1" parent="1" source="iyQ6s5K5xaynS0PIafc0-34" target="iyQ6s5K5xaynS0PIafc0-49">
          <mxGeometry relative="1" as="geometry" />
        </mxCell>
        <mxCell id="iyQ6s5K5xaynS0PIafc0-34" value="" style="rounded=1;whiteSpace=wrap;html=1;fontFamily=Computer Modern;fontSource=https%3A%2F%2Fgithub.com%2Fspratt%2FComputer-Modern%2Fblob%2F478ef3d4716bea134f9fc5c14f9c976fda120ee5%2Fcmunbl-webfont.woff;fontSize=20;fillColor=#dae8fc;strokeColor=#6c8ebf;" vertex="1" parent="1">
          <mxGeometry x="500" y="200" width="40" height="40" as="geometry" />
        </mxCell>
        <mxCell id="iyQ6s5K5xaynS0PIafc0-98" style="edgeStyle=orthogonalEdgeStyle;rounded=0;orthogonalLoop=1;jettySize=auto;html=1;exitX=0.5;exitY=1;exitDx=0;exitDy=0;entryX=0.5;entryY=0;entryDx=0;entryDy=0;fillColor=#dae8fc;strokeColor=#6c8ebf;" edge="1" parent="1" source="iyQ6s5K5xaynS0PIafc0-35" target="iyQ6s5K5xaynS0PIafc0-49">
          <mxGeometry relative="1" as="geometry" />
        </mxCell>
        <mxCell id="iyQ6s5K5xaynS0PIafc0-35" value="" style="rounded=1;whiteSpace=wrap;html=1;fontFamily=Computer Modern;fontSource=https%3A%2F%2Fgithub.com%2Fspratt%2FComputer-Modern%2Fblob%2F478ef3d4716bea134f9fc5c14f9c976fda120ee5%2Fcmunbl-webfont.woff;fontSize=20;fillColor=#dae8fc;strokeColor=#6c8ebf;" vertex="1" parent="1">
          <mxGeometry x="550" y="200" width="40" height="40" as="geometry" />
        </mxCell>
        <mxCell id="iyQ6s5K5xaynS0PIafc0-99" style="edgeStyle=orthogonalEdgeStyle;rounded=0;orthogonalLoop=1;jettySize=auto;html=1;exitX=0.5;exitY=1;exitDx=0;exitDy=0;entryX=0.5;entryY=0;entryDx=0;entryDy=0;fillColor=#dae8fc;strokeColor=#6c8ebf;" edge="1" parent="1" source="iyQ6s5K5xaynS0PIafc0-36" target="iyQ6s5K5xaynS0PIafc0-49">
          <mxGeometry relative="1" as="geometry" />
        </mxCell>
        <mxCell id="iyQ6s5K5xaynS0PIafc0-36" value="" style="rounded=1;whiteSpace=wrap;html=1;fontFamily=Computer Modern;fontSource=https%3A%2F%2Fgithub.com%2Fspratt%2FComputer-Modern%2Fblob%2F478ef3d4716bea134f9fc5c14f9c976fda120ee5%2Fcmunbl-webfont.woff;fontSize=20;fillColor=#dae8fc;strokeColor=#6c8ebf;" vertex="1" parent="1">
          <mxGeometry x="600" y="200" width="40" height="40" as="geometry" />
        </mxCell>
        <mxCell id="iyQ6s5K5xaynS0PIafc0-100" style="edgeStyle=orthogonalEdgeStyle;rounded=0;orthogonalLoop=1;jettySize=auto;html=1;exitX=0.5;exitY=1;exitDx=0;exitDy=0;entryX=0.5;entryY=0;entryDx=0;entryDy=0;fillColor=#dae8fc;strokeColor=#6c8ebf;" edge="1" parent="1" source="iyQ6s5K5xaynS0PIafc0-37" target="iyQ6s5K5xaynS0PIafc0-49">
          <mxGeometry relative="1" as="geometry" />
        </mxCell>
        <mxCell id="iyQ6s5K5xaynS0PIafc0-37" value="" style="rounded=1;whiteSpace=wrap;html=1;fontFamily=Computer Modern;fontSource=https%3A%2F%2Fgithub.com%2Fspratt%2FComputer-Modern%2Fblob%2F478ef3d4716bea134f9fc5c14f9c976fda120ee5%2Fcmunbl-webfont.woff;fontSize=20;fillColor=#dae8fc;strokeColor=#6c8ebf;" vertex="1" parent="1">
          <mxGeometry x="650" y="200" width="40" height="40" as="geometry" />
        </mxCell>
        <mxCell id="mSyn7aiFrJu5PlVPtzHy-6" style="edgeStyle=orthogonalEdgeStyle;rounded=0;orthogonalLoop=1;jettySize=auto;html=1;exitX=0.5;exitY=1;exitDx=0;exitDy=0;curved=1;fillColor=#dae8fc;strokeColor=#6c8ebf;" edge="1" parent="1" source="iyQ6s5K5xaynS0PIafc0-45" target="mSyn7aiFrJu5PlVPtzHy-4">
          <mxGeometry relative="1" as="geometry" />
        </mxCell>
        <mxCell id="iyQ6s5K5xaynS0PIafc0-45" value="" style="rounded=1;whiteSpace=wrap;html=1;fontFamily=Computer Modern;fontSource=https%3A%2F%2Fgithub.com%2Fspratt%2FComputer-Modern%2Fblob%2F478ef3d4716bea134f9fc5c14f9c976fda120ee5%2Fcmunbl-webfont.woff;fontSize=20;fillColor=#dae8fc;strokeColor=#6c8ebf;" vertex="1" parent="1">
          <mxGeometry x="300" y="320" width="40" height="40" as="geometry" />
        </mxCell>
        <mxCell id="iyQ6s5K5xaynS0PIafc0-47" value="" style="rounded=1;whiteSpace=wrap;html=1;fontFamily=Computer Modern;fontSource=https%3A%2F%2Fgithub.com%2Fspratt%2FComputer-Modern%2Fblob%2F478ef3d4716bea134f9fc5c14f9c976fda120ee5%2Fcmunbl-webfont.woff;fontSize=20;fillColor=#dae8fc;strokeColor=#6c8ebf;" vertex="1" parent="1">
          <mxGeometry x="400" y="320" width="40" height="40" as="geometry" />
        </mxCell>
        <mxCell id="mSyn7aiFrJu5PlVPtzHy-8" style="edgeStyle=orthogonalEdgeStyle;rounded=0;orthogonalLoop=1;jettySize=auto;html=1;exitX=0.5;exitY=1;exitDx=0;exitDy=0;curved=1;fillColor=#dae8fc;strokeColor=#6c8ebf;" edge="1" parent="1" source="iyQ6s5K5xaynS0PIafc0-49">
          <mxGeometry relative="1" as="geometry">
            <mxPoint x="420" y="440" as="targetPoint" />
          </mxGeometry>
        </mxCell>
        <mxCell id="iyQ6s5K5xaynS0PIafc0-49" value="" style="rounded=1;whiteSpace=wrap;html=1;fontFamily=Computer Modern;fontSource=https%3A%2F%2Fgithub.com%2Fspratt%2FComputer-Modern%2Fblob%2F478ef3d4716bea134f9fc5c14f9c976fda120ee5%2Fcmunbl-webfont.woff;fontSize=20;fillColor=#dae8fc;strokeColor=#6c8ebf;" vertex="1" parent="1">
          <mxGeometry x="500" y="320" width="40" height="40" as="geometry" />
        </mxCell>
        <mxCell id="iyQ6s5K5xaynS0PIafc0-113" value="Input" style="text;html=1;align=center;verticalAlign=middle;resizable=0;points=[];autosize=1;strokeColor=none;fillColor=none;fontSize=20;fontFamily=Computer Modern;fontSource=https%3A%2F%2Fgithub.com%2Fspratt%2FComputer-Modern%2Fblob%2F478ef3d4716bea134f9fc5c14f9c976fda120ee5%2Fcmunbl-webfont.woff;" vertex="1" parent="1">
          <mxGeometry x="50" y="80" width="70" height="40" as="geometry" />
        </mxCell>
        <mxCell id="iyQ6s5K5xaynS0PIafc0-114" value="Hidden" style="text;html=1;align=center;verticalAlign=middle;resizable=0;points=[];autosize=1;strokeColor=none;fillColor=none;fontSize=20;fontFamily=Computer Modern;fontSource=https%3A%2F%2Fgithub.com%2Fspratt%2FComputer-Modern%2Fblob%2F478ef3d4716bea134f9fc5c14f9c976fda120ee5%2Fcmunbl-webfont.woff;" vertex="1" parent="1">
          <mxGeometry x="40" y="200" width="80" height="40" as="geometry" />
        </mxCell>
        <mxCell id="iyQ6s5K5xaynS0PIafc0-115" value="Hidden" style="text;html=1;align=center;verticalAlign=middle;resizable=0;points=[];autosize=1;strokeColor=none;fillColor=none;fontSize=20;fontFamily=Computer Modern;fontSource=https%3A%2F%2Fgithub.com%2Fspratt%2FComputer-Modern%2Fblob%2F478ef3d4716bea134f9fc5c14f9c976fda120ee5%2Fcmunbl-webfont.woff;" vertex="1" parent="1">
          <mxGeometry x="40" y="320" width="80" height="40" as="geometry" />
        </mxCell>
        <mxCell id="mSyn7aiFrJu5PlVPtzHy-4" value="Output" style="text;html=1;align=center;verticalAlign=middle;resizable=0;points=[];autosize=1;strokeColor=none;fillColor=none;fontSize=20;fontFamily=Computer Modern;fontSource=https%3A%2F%2Fgithub.com%2Fspratt%2FComputer-Modern%2Fblob%2F478ef3d4716bea134f9fc5c14f9c976fda120ee5%2Fcmunbl-webfont.woff;" vertex="1" parent="1">
          <mxGeometry x="380" y="440" width="80" height="40" as="geometry" />
        </mxCell>
        <mxCell id="mSyn7aiFrJu5PlVPtzHy-7" style="edgeStyle=orthogonalEdgeStyle;rounded=0;orthogonalLoop=1;jettySize=auto;html=1;exitX=0.5;exitY=1;exitDx=0;exitDy=0;entryX=0.5;entryY=0;entryDx=0;entryDy=0;entryPerimeter=0;curved=1;fillColor=#dae8fc;strokeColor=#6c8ebf;" edge="1" parent="1" source="iyQ6s5K5xaynS0PIafc0-47" target="mSyn7aiFrJu5PlVPtzHy-4">
          <mxGeometry relative="1" as="geometry" />
        </mxCell>
      </root>
    </mxGraphModel>
  </diagram>
</mxfile>
